<?xml version="1.0" encoding="UTF-8"?>
<!DOCTYPE svg PUBLIC "-//W3C//DTD SVG 1.1//EN" "http://www.w3.org/Graphics/SVG/1.1/DTD/svg11.dtd">
<svg xmlns="http://www.w3.org/2000/svg" version="1.1" width="842px" height="595px" style="shape-rendering:geometricPrecision; text-rendering:geometricPrecision; image-rendering:optimizeQuality; fill-rule:evenodd; clip-rule:evenodd" xmlns:xlink="http://www.w3.org/1999/xlink">
<g><path style="opacity:0.77" fill="#27b1e8" d="M 554.5,104.5 C 554.5,105.167 554.5,105.833 554.5,106.5C 550.412,100.918 545.745,95.7513 540.5,91C 533.693,89.6487 529.027,92.1487 526.5,98.5C 525.761,98.369 525.094,98.5357 524.5,99C 524.302,102.399 522.636,104.566 519.5,105.5C 523.973,96.5531 528.473,87.5531 533,78.5C 536.399,74.3481 539.399,74.6815 542,79.5C 546.193,87.8864 550.36,96.2198 554.5,104.5 Z"/></g>
<g><path style="opacity:0.681" fill="#51baeb" d="M 554.5,106.5 C 556.052,112.034 558.052,117.368 560.5,122.5C 559.325,122.719 558.325,122.386 557.5,121.5C 555.726,118.285 554.226,114.952 553,111.5C 549.387,110.637 547.387,108.303 547,104.5C 541.789,97.5641 535.956,96.8975 529.5,102.5C 527.419,106.07 525.585,109.737 524,113.5C 519.533,117.129 516.033,121.462 513.5,126.5C 513.343,125.127 513.51,123.793 514,122.5C 518.834,114.837 523.001,106.837 526.5,98.5C 529.027,92.1487 533.693,89.6487 540.5,91C 545.745,95.7513 550.412,100.918 554.5,106.5 Z"/></g>
<g><path style="opacity:0.473" fill="#81cbf1" d="M 560.5,138.5 C 556.548,132.797 552.215,127.297 547.5,122C 536.396,117.972 527.23,120.472 520,129.5C 506.18,151.275 496.846,174.942 492,200.5C 489.513,205.468 486.513,210.134 483,214.5C 480.706,224.721 480.039,235.054 481,245.5C 483.039,251.149 485.539,256.482 488.5,261.5C 488.343,262.873 488.51,264.207 489,265.5C 493.001,268.335 496.501,271.668 499.5,275.5C 496.569,273.909 493.902,271.909 491.5,269.5C 487.614,265.419 484.448,260.752 482,255.5C 479.691,247.94 478.191,240.273 477.5,232.5C 477.667,229.5 477.833,226.5 478,223.5C 480.119,216.014 483.286,209.014 487.5,202.5C 488.817,198.213 489.817,193.88 490.5,189.5C 490.804,186.478 491.304,183.478 492,180.5C 498.916,164.601 505.749,148.601 512.5,132.5C 518.445,125.325 523.945,117.659 529,109.5C 534.667,102.833 540.333,102.833 546,109.5C 548.171,113.844 550.837,117.844 554,121.5C 556.727,126.953 558.893,132.62 560.5,138.5 Z"/></g>
<g><path style="opacity:0.767" fill="#1fb0e7" d="M 379.5,188.5 C 377.5,186.167 375.5,183.833 373.5,181.5C 370.251,172.268 364.918,164.435 357.5,158C 355.956,157.71 354.623,157.044 353.5,156C 351.833,155.333 350.167,155.333 348.5,156C 344.023,158.323 339.69,160.823 335.5,163.5C 336.895,159.71 338.562,156.043 340.5,152.5C 343.113,147.443 346.113,142.61 349.5,138C 352.28,137.731 354.446,138.898 356,141.5C 364.372,156.91 372.205,172.577 379.5,188.5 Z"/></g>
<g><path style="opacity:0.404" fill="#49b0e5" d="M 526.5,98.5 C 523.001,106.837 518.834,114.837 514,122.5C 513.51,123.793 513.343,125.127 513.5,126.5C 509.738,129.904 507.571,134.237 507,139.5C 503.7,146.092 500.033,152.426 496,158.5C 493.694,166.763 491.36,175.097 489,183.5C 487.667,185.5 486.333,187.5 485,189.5C 483.5,195.667 481.5,201.667 479,207.5C 478.517,206.552 478.351,205.552 478.5,204.5C 479.427,199.387 480.76,194.387 482.5,189.5C 492.907,160.598 505.24,132.598 519.5,105.5C 522.636,104.566 524.302,102.399 524.5,99C 525.094,98.5357 525.761,98.369 526.5,98.5 Z"/></g>
<g><path style="opacity:0.025" fill="#fefefe" d="M 340.5,152.5 C 338.562,156.043 336.895,159.71 335.5,163.5C 334.263,164.965 333.263,166.632 332.5,168.5C 330.322,172.338 328.322,176.338 326.5,180.5C 321.657,188.854 317.323,197.52 313.5,206.5C 311.562,210.043 309.895,213.71 308.5,217.5C 305.564,222.373 302.897,227.373 300.5,232.5C 293.052,220.293 291.552,207.293 296,193.5C 300.149,180.363 306.982,168.863 316.5,159C 323.746,154.022 331.746,151.855 340.5,152.5 Z"/></g>
<g><path style="opacity:0.729" fill="#39b4e9" d="M 373.5,181.5 C 374.333,186.165 376,190.498 378.5,194.5C 378.333,194.833 378.167,195.167 378,195.5C 377.051,193.907 375.885,192.574 374.5,191.5C 370.954,185.726 367.454,179.726 364,173.5C 354.935,164.039 344.935,163.039 334,170.5C 332.97,170.164 332.47,169.497 332.5,168.5C 333.263,166.632 334.263,164.965 335.5,163.5C 339.69,160.823 344.023,158.323 348.5,156C 350.167,155.333 351.833,155.333 353.5,156C 354.623,157.044 355.956,157.71 357.5,158C 364.918,164.435 370.251,172.268 373.5,181.5 Z"/></g>
<g><path style="opacity:0.569" fill="#61b9e9" d="M 513.5,126.5 C 512.85,128.435 512.517,130.435 512.5,132.5C 505.749,148.601 498.916,164.601 492,180.5C 491.304,183.478 490.804,186.478 490.5,189.5C 488.245,195.218 485.578,200.885 482.5,206.5C 480.833,207.5 479.5,208.833 478.5,210.5C 477.702,210.043 477.369,209.376 477.5,208.5C 477.232,206.901 477.566,205.568 478.5,204.5C 478.351,205.552 478.517,206.552 479,207.5C 481.5,201.667 483.5,195.667 485,189.5C 486.333,187.5 487.667,185.5 489,183.5C 491.36,175.097 493.694,166.763 496,158.5C 500.033,152.426 503.7,146.092 507,139.5C 507.571,134.237 509.738,129.904 513.5,126.5 Z"/></g>
<g><path style="opacity:0.022" fill="#fefefe" d="M 582.5,163.5 C 598.343,165.162 609.177,173.495 615,188.5C 619.602,202.522 619.602,216.522 615,230.5C 611.615,238.052 606.115,243.385 598.5,246.5C 600.44,238.224 600.773,229.89 599.5,221.5C 599.552,219.097 599.219,216.764 598.5,214.5C 596.233,203.078 592.899,192.078 588.5,181.5C 586.702,175.438 584.702,169.438 582.5,163.5 Z"/></g>
<g><path style="opacity:0.625" fill="#57b3e6" d="M 554.5,104.5 C 564.652,123.803 573.985,143.47 582.5,163.5C 584.702,169.438 586.702,175.438 588.5,181.5C 587.614,182.776 586.614,182.776 585.5,181.5C 580.212,172.48 576.379,162.814 574,152.5C 570.288,142.082 565.788,132.082 560.5,122.5C 558.052,117.368 556.052,112.034 554.5,106.5C 554.5,105.833 554.5,105.167 554.5,104.5 Z"/></g>
<g><path style="opacity:0.619" fill="#5abceb" d="M 374.5,191.5 C 376.167,194.833 377.833,198.167 379.5,201.5C 377.204,199.599 375.371,197.266 374,194.5C 373.833,195 373.667,195.5 373.5,196C 376.122,200.426 378.455,204.926 380.5,209.5C 378.5,207.167 376.5,204.833 374.5,202.5C 369.542,192.704 363.208,183.871 355.5,176C 348.728,171.466 342.062,171.633 335.5,176.5C 332.14,177.52 329.473,179.52 327.5,182.5C 326.702,182.043 326.369,181.376 326.5,180.5C 328.322,176.338 330.322,172.338 332.5,168.5C 332.47,169.497 332.97,170.164 334,170.5C 344.935,163.039 354.935,164.039 364,173.5C 367.454,179.726 370.954,185.726 374.5,191.5 Z"/></g>
<g><path style="opacity:0.438" fill="#99d6f5" d="M 334.5,184.5 C 347.138,183.725 353.805,189.725 354.5,202.5C 353.827,207.717 352.827,212.884 351.5,218C 352.615,219.235 352.615,220.402 351.5,221.5C 352.025,222.192 352.692,222.692 353.5,223C 352.203,227.07 354.203,229.07 359.5,229C 364.931,231.122 370.765,233.956 377,237.5C 385.408,249.649 392.242,262.649 397.5,276.5C 392.485,266.979 386.819,257.812 380.5,249C 368.109,239.158 354.109,235.491 338.5,238C 335.382,239.059 332.382,240.392 329.5,242C 320.145,250.363 312.645,260.197 307,271.5C 303.934,274.396 301.101,277.396 298.5,280.5C 292.537,284.795 287.204,289.795 282.5,295.5C 282.608,293.217 283.441,291.217 285,289.5C 289.3,286.202 293.3,282.535 297,278.5C 297.483,277.552 297.649,276.552 297.5,275.5C 302.275,271.626 305.275,266.626 306.5,260.5C 307.675,260.719 308.675,260.386 309.5,259.5C 314.905,250.113 319.238,240.279 322.5,230C 321.173,222.068 321.173,214.235 322.5,206.5C 324.629,210.457 326.129,214.791 327,219.5C 328.333,222.167 330.333,224.167 333,225.5C 339.871,223.632 344.538,219.298 347,212.5C 349.79,206.303 350.123,199.969 348,193.5C 344.222,188.964 339.388,186.63 333.5,186.5C 333.328,185.508 333.662,184.842 334.5,184.5 Z"/></g>
<g><path style="opacity:0.026" fill="#fefefe" d="M 482.5,189.5 C 480.76,194.387 479.427,199.387 478.5,204.5C 477.566,205.568 477.232,206.901 477.5,208.5C 472.68,227.086 473.847,245.419 481,263.5C 483.36,268.24 486.193,272.574 489.5,276.5C 493.92,282.256 499.253,286.922 505.5,290.5C 513.039,294.569 521.039,297.235 529.5,298.5C 525.786,301.69 521.453,303.857 516.5,305C 500.906,307.468 487.406,303.301 476,292.5C 457.773,269.599 450.773,243.599 455,214.5C 458.944,200.388 468.111,192.054 482.5,189.5 Z"/></g>
<g><path style="opacity:0.72" fill="#6fc0ec" d="M 560.5,122.5 C 565.788,132.082 570.288,142.082 574,152.5C 576.379,162.814 580.212,172.48 585.5,181.5C 586.614,182.776 587.614,182.776 588.5,181.5C 592.899,192.078 596.233,203.078 598.5,214.5C 596.545,218.94 594.878,223.607 593.5,228.5C 593.167,228.5 592.833,228.5 592.5,228.5C 594.652,220.795 594.985,213.129 593.5,205.5C 591.653,199.127 589.486,192.794 587,186.5C 577.132,173.76 570.132,159.427 566,143.5C 563.761,142.111 561.928,140.444 560.5,138.5C 558.893,132.62 556.727,126.953 554,121.5C 550.837,117.844 548.171,113.844 546,109.5C 540.333,102.833 534.667,102.833 529,109.5C 523.945,117.659 518.445,125.325 512.5,132.5C 512.517,130.435 512.85,128.435 513.5,126.5C 516.033,121.462 519.533,117.129 524,113.5C 525.585,109.737 527.419,106.07 529.5,102.5C 535.956,96.8975 541.789,97.5641 547,104.5C 547.387,108.303 549.387,110.637 553,111.5C 554.226,114.952 555.726,118.285 557.5,121.5C 558.325,122.386 559.325,122.719 560.5,122.5 Z"/></g>
<g><path style="opacity:0.486" fill="#90d3f4" d="M 560.5,138.5 C 561.928,140.444 563.761,142.111 566,143.5C 570.132,159.427 577.132,173.76 587,186.5C 589.486,192.794 591.653,199.127 593.5,205.5C 593.819,210.363 593.486,215.03 592.5,219.5C 590.424,222.102 588.424,224.936 586.5,228C 574.99,233.256 564.656,240.256 555.5,249C 546.682,252.755 537.682,255.755 528.5,258C 525.229,264.468 521.229,270.468 516.5,276C 510.786,279.052 505.12,278.886 499.5,275.5C 496.501,271.668 493.001,268.335 489,265.5C 488.51,264.207 488.343,262.873 488.5,261.5C 485.539,256.482 483.039,251.149 481,245.5C 480.039,235.054 480.706,224.721 483,214.5C 486.513,210.134 489.513,205.468 492,200.5C 496.846,174.942 506.18,151.275 520,129.5C 527.23,120.472 536.396,117.972 547.5,122C 552.215,127.297 556.548,132.797 560.5,138.5 Z"/></g>
<g><path style="opacity:0.604" fill="#b4e0f8" d="M 508.5,262.5 C 507.5,261.167 506.5,259.833 505.5,258.5C 502.266,250.025 499.599,241.359 497.5,232.5C 496.962,230.883 496.629,229.216 496.5,227.5C 488.375,227.961 484.375,232.294 484.5,240.5C 483.167,237.833 483.167,235.167 484.5,232.5C 485.692,224.145 490.192,219.479 498,218.5C 503,219.5 506,222.5 507,227.5C 509.209,239.125 509.709,250.792 508.5,262.5 Z"/></g>
<g><path style="opacity:0.496" fill="#9bd7f6" d="M 588.5,204.5 C 590.125,210.801 589.459,216.968 586.5,223C 581.256,226.065 575.59,228.065 569.5,229C 562.033,233.905 554.366,238.571 546.5,243C 538.999,244.384 531.665,245.384 524.5,246C 523.299,246.903 522.465,248.069 522,249.5C 520.49,255.872 518.824,262.205 517,268.5C 508.61,277.612 500.61,276.945 493,266.5C 492.517,265.552 492.351,264.552 492.5,263.5C 495.117,266.147 498.117,268.314 501.5,270C 504.778,270.278 507.945,269.778 511,268.5C 514.293,259.105 515.126,249.938 513.5,241C 514.021,236.752 515.688,233.086 518.5,230C 520.049,230.522 521.549,230.355 523,229.5C 528.415,232.543 534.249,233.709 540.5,233C 547.284,231.11 553.284,227.944 558.5,223.5C 566.658,222.143 574.824,220.81 583,219.5C 585.101,217.906 586.601,215.906 587.5,213.5C 588.403,210.609 588.736,207.609 588.5,204.5 Z"/></g>
<g><path style="opacity:0.869" fill="#def0fb" d="M 580.5,194.5 C 582.5,195.833 584.5,197.167 586.5,198.5C 586.971,200.579 587.637,202.579 588.5,204.5C 588.736,207.609 588.403,210.609 587.5,213.5C 586.373,214.122 585.373,214.955 584.5,216C 582.934,216.765 581.601,216.598 580.5,215.5C 581.822,215.67 582.989,215.337 584,214.5C 585.665,209.112 585.331,203.778 583,198.5C 581.211,196.771 579.044,196.104 576.5,196.5C 576.5,197.5 576.5,198.5 576.5,199.5C 575.549,198.081 575.216,196.415 575.5,194.5C 577.167,194.5 578.833,194.5 580.5,194.5 Z"/></g>
<g><path style="opacity:0.927" fill="#f4fafe" d="M 580.5,215.5 C 580.443,214.391 580.11,213.391 579.5,212.5C 578.968,208.039 577.968,203.706 576.5,199.5C 576.5,198.5 576.5,197.5 576.5,196.5C 579.044,196.104 581.211,196.771 583,198.5C 585.331,203.778 585.665,209.112 584,214.5C 582.989,215.337 581.822,215.67 580.5,215.5 Z"/></g>
<g><path style="opacity:0.313" fill="#b7e2f8" d="M 579.5,193.5 C 580.167,193.5 580.5,193.833 580.5,194.5C 578.833,194.5 577.167,194.5 575.5,194.5C 575.216,196.415 575.549,198.081 576.5,199.5C 577.968,203.706 578.968,208.039 579.5,212.5C 572.766,212.208 566.433,211.208 560.5,209.5C 556.315,210.422 552.982,212.588 550.5,216C 535.294,224.669 524.127,220.836 517,204.5C 512.841,190.271 514.174,176.604 521,163.5C 531.257,150.636 541.923,150.302 553,162.5C 556.668,169.51 560.335,176.51 564,183.5C 568.798,187.478 573.965,190.811 579.5,193.5 Z"/></g>
<g><path style="opacity:0.176" fill="#c2e6f9" d="M 532.5,160.5 C 539.97,158.823 545.803,161.157 550,167.5C 553.249,172.922 555.915,178.589 558,184.5C 562.592,193.697 560.425,200.697 551.5,205.5C 546.137,214.349 538.803,216.515 529.5,212C 520.372,202.67 517.205,191.503 520,178.5C 521.732,170.634 525.899,164.634 532.5,160.5 Z"/></g>
<g><path style="opacity:0.133" fill="#cdeafa" d="M 534.5,168.5 C 542.421,168.746 547.421,172.746 549.5,180.5C 552.879,190.86 550.213,199.027 541.5,205C 533.334,206.83 528.168,203.664 526,195.5C 523.041,184.436 525.875,175.436 534.5,168.5 Z"/></g>
<g><path style="opacity:0.323" fill="#b1dff8" d="M 579.5,193.5 C 573.965,190.811 568.798,187.478 564,183.5C 560.335,176.51 556.668,169.51 553,162.5C 541.923,150.302 531.257,150.636 521,163.5C 514.174,176.604 512.841,190.271 517,204.5C 524.127,220.836 535.294,224.669 550.5,216C 552.982,212.588 556.315,210.422 560.5,209.5C 566.433,211.208 572.766,212.208 579.5,212.5C 580.11,213.391 580.443,214.391 580.5,215.5C 578.874,215.938 577.207,216.272 575.5,216.5C 569.888,215.118 564.221,214.618 558.5,215C 554.102,218.394 549.435,221.394 544.5,224C 532.104,226.639 522.604,222.473 516,211.5C 511.36,196.486 511.36,181.486 516,166.5C 522.356,150.729 533.189,146.229 548.5,153C 550.667,155.167 552.833,157.333 555,159.5C 558.603,166.168 562.103,172.834 565.5,179.5C 568.876,182.878 572.543,185.878 576.5,188.5C 577.952,189.94 578.952,191.606 579.5,193.5 Z"/></g>
<g><path style="opacity:0.394" fill="#aadcf7" d="M 578.5,184.5 C 581.111,187.971 583.611,191.637 586,195.5C 586.483,196.448 586.649,197.448 586.5,198.5C 584.5,197.167 582.5,195.833 580.5,194.5C 580.5,193.833 580.167,193.5 579.5,193.5C 578.952,191.606 577.952,189.94 576.5,188.5C 572.543,185.878 568.876,182.878 565.5,179.5C 562.103,172.834 558.603,166.168 555,159.5C 552.833,157.333 550.667,155.167 548.5,153C 533.189,146.229 522.356,150.729 516,166.5C 511.36,181.486 511.36,196.486 516,211.5C 522.604,222.473 532.104,226.639 544.5,224C 549.435,221.394 554.102,218.394 558.5,215C 564.221,214.618 569.888,215.118 575.5,216.5C 577.207,216.272 578.874,215.938 580.5,215.5C 581.601,216.598 582.934,216.765 584.5,216C 585.373,214.955 586.373,214.122 587.5,213.5C 586.601,215.906 585.101,217.906 583,219.5C 574.824,220.81 566.658,222.143 558.5,223.5C 553.284,227.944 547.284,231.11 540.5,233C 534.249,233.709 528.415,232.543 523,229.5C 521.549,230.355 520.049,230.522 518.5,230C 515.688,233.086 514.021,236.752 513.5,241C 515.126,249.938 514.293,259.105 511,268.5C 507.945,269.778 504.778,270.278 501.5,270C 498.117,268.314 495.117,266.147 492.5,263.5C 492.5,263.167 492.5,262.833 492.5,262.5C 495.892,264.13 499.392,265.464 503,266.5C 506.293,266.954 508.126,265.62 508.5,262.5C 509.709,250.792 509.209,239.125 507,227.5C 506,222.5 503,219.5 498,218.5C 490.192,219.479 485.692,224.145 484.5,232.5C 483.198,223.272 486.531,216.439 494.5,212C 500.694,211.139 504.194,207.639 505,201.5C 503.741,184.958 506.741,169.292 514,154.5C 528.99,134.868 544.324,134.534 560,153.5C 563.257,159.681 566.257,166.015 569,172.5C 571.65,176.975 574.817,180.975 578.5,184.5 Z"/></g>
<g><path style="opacity:0.413" fill="#9dd7f6" d="M 578.5,184.5 C 574.817,180.975 571.65,176.975 569,172.5C 566.257,166.015 563.257,159.681 560,153.5C 544.324,134.534 528.99,134.868 514,154.5C 506.741,169.292 503.741,184.958 505,201.5C 504.194,207.639 500.694,211.139 494.5,212C 486.531,216.439 483.198,223.272 484.5,232.5C 483.167,235.167 483.167,237.833 484.5,240.5C 486.181,248.21 488.847,255.543 492.5,262.5C 492.5,262.833 492.5,263.167 492.5,263.5C 490.938,263.267 489.605,262.6 488.5,261.5C 486.529,255.976 484.696,250.309 483,244.5C 479.743,228.277 484.076,214.61 496,203.5C 498.139,199.968 498.973,196.302 498.5,192.5C 501.153,172.207 508.153,153.54 519.5,136.5C 531.483,128.549 543.483,128.549 555.5,136.5C 562.002,146.831 566.836,157.831 570,169.5C 572.351,174.88 575.184,179.88 578.5,184.5 Z"/></g>
<g><path style="opacity:0.57" fill="#67b9e8" d="M 313.5,206.5 C 314.816,214.775 314.316,223.108 312,231.5C 304.558,247.383 297.392,263.383 290.5,279.5C 288.29,282.063 285.956,284.563 283.5,287C 280.804,287.69 278.637,289.19 277,291.5C 276.536,290.906 276.369,290.239 276.5,289.5C 277.321,285.873 278.654,282.54 280.5,279.5C 280.993,281.49 282.16,281.49 284,279.5C 288.035,271.93 292.202,264.43 296.5,257C 300.189,247.121 304.022,237.288 308,227.5C 309.429,224.05 309.595,220.717 308.5,217.5C 309.895,213.71 311.562,210.043 313.5,206.5 Z"/></g>
<g><path style="opacity:0.556" fill="#82cff4" d="M 592.5,219.5 C 591.833,228.321 587.5,234.487 579.5,238C 579.833,238.333 580.167,238.667 580.5,239C 579.167,239.667 577.833,240.333 576.5,241C 569.631,250.862 560.631,258.195 549.5,263C 544.354,264.019 539.354,265.352 534.5,267C 529.491,270.629 524.491,274.963 519.5,280C 514.866,281.697 510.199,281.864 505.5,280.5C 502.561,279.03 499.561,277.53 496.5,276C 494.21,274.223 492.543,272.056 491.5,269.5C 493.902,271.909 496.569,273.909 499.5,275.5C 505.12,278.886 510.786,279.052 516.5,276C 521.229,270.468 525.229,264.468 528.5,258C 537.682,255.755 546.682,252.755 555.5,249C 564.656,240.256 574.99,233.256 586.5,228C 588.424,224.936 590.424,222.102 592.5,219.5 Z"/></g>
<g><path style="opacity:0.566" fill="#63b8e8" d="M 379.5,201.5 C 387.968,218.437 396.468,235.437 405,252.5C 406.693,258.608 408.693,264.608 411,270.5C 411.71,271.973 412.876,272.64 414.5,272.5C 415.61,276.406 416.443,280.406 417,284.5C 419.167,286.83 420.834,289.497 422,292.5C 424.127,297.749 425.96,303.083 427.5,308.5C 429.16,314.482 430.826,320.482 432.5,326.5C 432.457,327.416 432.124,328.083 431.5,328.5C 427.203,314.228 422.036,300.228 416,286.5C 411.908,281.231 409.575,275.231 409,268.5C 399.967,248.546 390.467,228.88 380.5,209.5C 378.455,204.926 376.122,200.426 373.5,196C 373.667,195.5 373.833,195 374,194.5C 375.371,197.266 377.204,199.599 379.5,201.5 Z"/></g>
<g><path style="opacity:0.576" fill="#77cbf3" d="M 593.5,205.5 C 594.985,213.129 594.652,220.795 592.5,228.5C 591.295,231.234 589.795,233.901 588,236.5C 582.656,243.206 577.322,249.873 572,256.5C 561.858,267.321 549.358,273.487 534.5,275C 530.767,277.72 526.767,280.053 522.5,282C 517.219,283.746 511.886,283.913 506.5,282.5C 506.167,281.833 505.833,281.167 505.5,280.5C 510.199,281.864 514.866,281.697 519.5,280C 524.491,274.963 529.491,270.629 534.5,267C 539.354,265.352 544.354,264.019 549.5,263C 560.631,258.195 569.631,250.862 576.5,241C 577.833,240.333 579.167,239.667 580.5,239C 580.167,238.667 579.833,238.333 579.5,238C 587.5,234.487 591.833,228.321 592.5,219.5C 593.486,215.03 593.819,210.363 593.5,205.5 Z"/></g>
<g><path style="opacity:0.391" fill="#a0d9f6" d="M 397.5,276.5 C 397.796,278.403 398.463,280.07 399.5,281.5C 415.697,320.715 412.197,358.049 389,393.5C 368.971,416.787 346.471,419.62 321.5,402C 314.478,394.763 308.312,386.93 303,378.5C 302.667,378.833 302.333,379.167 302,379.5C 299.667,378.833 297.333,378.167 295,377.5C 290.039,379.123 285.205,380.123 280.5,380.5C 274.077,379.97 269.41,376.97 266.5,371.5C 268.671,373.5 271.004,375.334 273.5,377C 278.707,377.759 283.874,377.592 289,376.5C 294.846,371.713 301.346,369.713 308.5,370.5C 314.894,384.062 324.894,394.229 338.5,401C 358.153,405.765 373.987,399.931 386,383.5C 403.348,355.045 407.348,324.712 398,292.5C 393.898,278.45 386.398,266.617 375.5,257C 360.057,246.104 344.391,245.77 328.5,256C 322.386,261.236 316.719,266.903 311.5,273C 306.807,275.021 302.64,277.854 299,281.5C 298.601,281.272 298.435,280.938 298.5,280.5C 301.101,277.396 303.934,274.396 307,271.5C 312.645,260.197 320.145,250.363 329.5,242C 332.382,240.392 335.382,239.059 338.5,238C 354.109,235.491 368.109,239.158 380.5,249C 386.819,257.812 392.485,266.979 397.5,276.5 Z"/></g>
<g><path style="opacity:0.525" fill="#6fbfeb" d="M 374.5,202.5 C 376.5,204.833 378.5,207.167 380.5,209.5C 390.467,228.88 399.967,248.546 409,268.5C 409.575,275.231 411.908,281.231 416,286.5C 422.036,300.228 427.203,314.228 431.5,328.5C 433.545,336.056 435.212,343.723 436.5,351.5C 434.255,345.743 431.921,339.91 429.5,334C 428.833,331 428.167,328 427.5,325C 421.153,312.683 415.653,299.85 411,286.5C 410.667,283.833 410.333,281.167 410,278.5C 397.887,252.989 386.053,227.656 374.5,202.5 Z"/></g>
<g><path style="opacity:0.949" fill="#f2f9fe" d="M 497.5,232.5 C 499.599,241.359 502.266,250.025 505.5,258.5C 501.729,259.607 498.063,258.94 494.5,256.5C 487.837,249.687 486.837,242.187 491.5,234C 493.345,232.872 495.345,232.372 497.5,232.5 Z"/></g>
<g><path style="opacity:0.641" fill="#4fb1e5" d="M 373.5,181.5 C 375.5,183.833 377.5,186.167 379.5,188.5C 397.661,222.825 413.661,258.158 427.5,294.5C 427.743,302.726 429.909,310.392 434,317.5C 436.801,326.704 438.968,336.037 440.5,345.5C 435.992,333.889 432.159,321.889 429,309.5C 428.617,308.944 428.117,308.611 427.5,308.5C 425.96,303.083 424.127,297.749 422,292.5C 420.834,289.497 419.167,286.83 417,284.5C 416.443,280.406 415.61,276.406 414.5,272.5C 412.876,272.64 411.71,271.973 411,270.5C 408.693,264.608 406.693,258.608 405,252.5C 396.468,235.437 387.968,218.437 379.5,201.5C 377.833,198.167 376.167,194.833 374.5,191.5C 375.885,192.574 377.051,193.907 378,195.5C 378.167,195.167 378.333,194.833 378.5,194.5C 376,190.498 374.333,186.165 373.5,181.5 Z"/></g>
<g><path style="opacity:0.874" fill="#d7eefb" d="M 497.5,232.5 C 495.345,232.372 493.345,232.872 491.5,234C 486.837,242.187 487.837,249.687 494.5,256.5C 498.063,258.94 501.729,259.607 505.5,258.5C 506.5,259.833 507.5,261.167 508.5,262.5C 508.126,265.62 506.293,266.954 503,266.5C 499.392,265.464 495.892,264.13 492.5,262.5C 488.847,255.543 486.181,248.21 484.5,240.5C 484.375,232.294 488.375,227.961 496.5,227.5C 496.629,229.216 496.962,230.883 497.5,232.5 Z"/></g>
<g><path style="opacity:0.63" fill="#66c7f1" d="M 592.5,228.5 C 592.833,228.5 593.167,228.5 593.5,228.5C 583.404,279.732 553.071,298.065 502.5,283.5C 499.987,282.272 497.987,280.605 496.5,278.5C 499.588,280.375 502.922,281.708 506.5,282.5C 511.886,283.913 517.219,283.746 522.5,282C 526.767,280.053 530.767,277.72 534.5,275C 549.358,273.487 561.858,267.321 572,256.5C 577.322,249.873 582.656,243.206 588,236.5C 589.795,233.901 591.295,231.234 592.5,228.5 Z"/></g>
<g><path style="opacity:0.441" fill="#53b0e4" d="M 308.5,217.5 C 309.595,220.717 309.429,224.05 308,227.5C 304.022,237.288 300.189,247.121 296.5,257C 292.202,264.43 288.035,271.93 284,279.5C 282.16,281.49 280.993,281.49 280.5,279.5C 281.97,275.088 283.637,270.755 285.5,266.5C 290.499,255.172 295.499,243.838 300.5,232.5C 302.897,227.373 305.564,222.373 308.5,217.5 Z"/></g>
<g><path style="opacity:0.355" fill="#a7daf6" d="M 266.5,371.5 C 261.972,360.088 261.305,348.421 264.5,336.5C 264.338,334.473 264.505,332.473 265,330.5C 268.75,320.253 273.083,310.253 278,300.5C 279.976,299.178 281.476,297.512 282.5,295.5C 287.204,289.795 292.537,284.795 298.5,280.5C 298.435,280.938 298.601,281.272 299,281.5C 302.64,277.854 306.807,275.021 311.5,273C 316.719,266.903 322.386,261.236 328.5,256C 344.391,245.77 360.057,246.104 375.5,257C 386.398,266.617 393.898,278.45 398,292.5C 407.348,324.712 403.348,355.045 386,383.5C 373.987,399.931 358.153,405.765 338.5,401C 324.894,394.229 314.894,384.062 308.5,370.5C 301.346,369.713 294.846,371.713 289,376.5C 283.874,377.592 278.707,377.759 273.5,377C 271.004,375.334 268.671,373.5 266.5,371.5 Z"/></g>
<g><path style="opacity:0.333" fill="#abdcf7" d="M 268.5,369.5 C 275.884,374.588 283.55,374.755 291.5,370C 296.47,364.86 302.137,360.693 308.5,357.5C 310.225,358.015 311.892,358.682 313.5,359.5C 319.25,372.083 328.25,381.583 340.5,388C 352.761,391.814 363.761,389.481 373.5,381C 390.629,361.005 397.129,337.838 393,311.5C 390.636,294.271 383.136,279.771 370.5,268C 358.384,259.808 346.05,259.474 333.5,267C 328.808,271.029 324.142,275.029 319.5,279C 312.145,279.623 305.145,281.456 298.5,284.5C 303.129,279.509 308.796,276.009 315.5,274C 320.113,269.387 324.779,264.721 329.5,260C 345.28,249.603 360.613,250.27 375.5,262C 387.604,274.038 395.104,288.538 398,305.5C 403.099,332.923 398.099,358.256 383,381.5C 362.952,403.41 342.285,404.077 321,383.5C 317.277,377.875 313.444,372.375 309.5,367C 307.899,366.727 306.399,366.227 305,365.5C 297.009,370.414 288.509,374.08 279.5,376.5C 274.25,376.389 270.583,374.056 268.5,369.5 Z"/></g>
<g><path style="opacity:0.505" fill="#7ac2ec" d="M 335.5,176.5 C 336.552,176.351 337.552,176.517 338.5,177C 332.093,179.841 332.093,180.674 338.5,179.5C 337.158,180.793 335.491,181.626 333.5,182C 320.504,195.02 315.504,210.686 318.5,229C 311.216,243.678 304.216,258.511 297.5,273.5C 295.122,275.552 292.789,277.552 290.5,279.5C 297.392,263.383 304.558,247.383 312,231.5C 314.316,223.108 314.816,214.775 313.5,206.5C 317.323,197.52 321.657,188.854 326.5,180.5C 326.369,181.376 326.702,182.043 327.5,182.5C 329.473,179.52 332.14,177.52 335.5,176.5 Z"/></g>
<g><path style="opacity:0.433" fill="#89ccf1" d="M 419.5,313.5 C 421.31,320.407 422.643,327.407 423.5,334.5C 422.833,333.833 422.167,333.167 421.5,332.5C 413.106,295.117 398.606,260.45 378,228.5C 376.834,222.516 373.834,217.516 369,213.5C 363.724,205.282 359.224,196.616 355.5,187.5C 350.403,182.746 344.403,180.912 337.5,182C 336.263,182.232 335.263,182.732 334.5,183.5C 334.5,183.833 334.5,184.167 334.5,184.5C 333.662,184.842 333.328,185.508 333.5,186.5C 332.833,186.5 332.5,186.833 332.5,187.5C 331.227,189.713 330.227,192.046 329.5,194.5C 327.992,196.181 326.992,198.181 326.5,200.5C 325.094,200.973 324.427,201.973 324.5,203.5C 323.599,204.29 322.932,205.29 322.5,206.5C 321.173,214.235 321.173,222.068 322.5,230C 319.238,240.279 314.905,250.113 309.5,259.5C 308.675,260.386 307.675,260.719 306.5,260.5C 305.275,266.626 302.275,271.626 297.5,275.5C 297.5,274.833 297.5,274.167 297.5,273.5C 304.216,258.511 311.216,243.678 318.5,229C 315.504,210.686 320.504,195.02 333.5,182C 335.491,181.626 337.158,180.793 338.5,179.5C 339.624,178.191 341.124,177.525 343,177.5C 347.386,177.673 351.053,179.34 354,182.5C 363.803,198.753 374.136,214.753 385,230.5C 390.24,244.981 396.573,258.981 404,272.5C 409.297,286.238 414.463,299.904 419.5,313.5 Z"/></g>
<g><path style="opacity:0.547" fill="#abdbf6" d="M 332.5,187.5 C 332.5,186.833 332.833,186.5 333.5,186.5C 339.388,186.63 344.222,188.964 348,193.5C 350.123,199.969 349.79,206.303 347,212.5C 344.538,219.298 339.871,223.632 333,225.5C 330.333,224.167 328.333,222.167 327,219.5C 326.129,214.791 324.629,210.457 322.5,206.5C 322.932,205.29 323.599,204.29 324.5,203.5C 324.007,207.338 325.674,209.338 329.5,209.5C 338.893,206.738 342.726,200.405 341,190.5C 338.695,188.07 335.862,187.07 332.5,187.5 Z"/></g>
<g><path style="opacity:0.78" fill="#d7ecfa" d="M 332.5,187.5 C 335.862,187.07 338.695,188.07 341,190.5C 342.726,200.405 338.893,206.738 329.5,209.5C 325.674,209.338 324.007,207.338 324.5,203.5C 324.427,201.973 325.094,200.973 326.5,200.5C 326.822,204.976 329.156,206.476 333.5,205C 337.117,201.941 338.617,198.108 338,193.5C 334.869,189.781 332.036,190.114 329.5,194.5C 330.227,192.046 331.227,189.713 332.5,187.5 Z"/></g>
<g><path style="opacity:0.893" fill="#e9f4fc" d="M 326.5,200.5 C 326.992,198.181 327.992,196.181 329.5,194.5C 332.036,190.114 334.869,189.781 338,193.5C 338.617,198.108 337.117,201.941 333.5,205C 329.156,206.476 326.822,204.976 326.5,200.5 Z"/></g>
<g><path style="opacity:0.312" fill="#b1dff7" d="M 268.5,369.5 C 265.526,364.238 264.192,358.572 264.5,352.5C 265.184,355.592 266.184,358.592 267.5,361.5C 269.804,370.325 275.471,373.492 284.5,371C 286.664,370.086 288.664,368.919 290.5,367.5C 295.733,362.428 301.066,357.594 306.5,353C 309.735,350.816 313.069,350.316 316.5,351.5C 319.533,358.558 323.366,365.224 328,371.5C 340.063,383.941 353.563,385.774 368.5,377C 384.434,361.205 391.267,342.039 389,319.5C 388.158,302.658 381.991,288.158 370.5,276C 358.978,266.943 346.978,266.276 334.5,274C 331.39,277.454 328.057,280.454 324.5,283C 317.773,283.633 310.773,284.299 303.5,285C 299.812,286.513 296.145,288.013 292.5,289.5C 294.5,287.833 296.5,286.167 298.5,284.5C 305.145,281.456 312.145,279.623 319.5,279C 324.142,275.029 328.808,271.029 333.5,267C 346.05,259.474 358.384,259.808 370.5,268C 383.136,279.771 390.636,294.271 393,311.5C 397.129,337.838 390.629,361.005 373.5,381C 363.761,389.481 352.761,391.814 340.5,388C 328.25,381.583 319.25,372.083 313.5,359.5C 311.892,358.682 310.225,358.015 308.5,357.5C 302.137,360.693 296.47,364.86 291.5,370C 283.55,374.755 275.884,374.588 268.5,369.5 Z"/></g>
<g><path style="opacity:0.808" fill="#6cc2ee" d="M 490.5,189.5 C 489.817,193.88 488.817,198.213 487.5,202.5C 483.286,209.014 480.119,216.014 478,223.5C 477.833,226.5 477.667,229.5 477.5,232.5C 478.191,240.273 479.691,247.94 482,255.5C 484.448,260.752 487.614,265.419 491.5,269.5C 492.543,272.056 494.21,274.223 496.5,276C 499.561,277.53 502.561,279.03 505.5,280.5C 505.833,281.167 506.167,281.833 506.5,282.5C 502.922,281.708 499.588,280.375 496.5,278.5C 494.564,277.741 492.731,276.741 491,275.5C 490.235,275.57 489.735,275.903 489.5,276.5C 486.193,272.574 483.36,268.24 481,263.5C 473.847,245.419 472.68,227.086 477.5,208.5C 477.369,209.376 477.702,210.043 478.5,210.5C 479.5,208.833 480.833,207.5 482.5,206.5C 485.578,200.885 488.245,195.218 490.5,189.5 Z"/></g>
<g><path style="opacity:0.033" fill="#fefefe" d="M 285.5,266.5 C 283.637,270.755 281.97,275.088 280.5,279.5C 278.654,282.54 277.321,285.873 276.5,289.5C 268.624,307.633 261.957,326.299 256.5,345.5C 254.859,350.061 253.526,354.728 252.5,359.5C 251.366,362.37 250.7,365.37 250.5,368.5C 249.766,369.708 249.433,371.041 249.5,372.5C 249.167,373.833 248.833,375.167 248.5,376.5C 248.075,380.908 247.408,385.242 246.5,389.5C 236.586,375.506 232.752,359.84 235,342.5C 238.887,318.732 248.22,297.398 263,278.5C 269.151,272.007 276.651,268.007 285.5,266.5 Z"/></g>
<g><path style="opacity:0.269" fill="#b7e2f8" d="M 267.5,361.5 C 269.97,365.465 273.47,368.131 278,369.5C 283.101,368.533 287.601,366.366 291.5,363C 297.667,354.167 305.167,346.667 314,340.5C 315.911,340.745 317.911,340.745 320,340.5C 324.139,350.983 330.306,360.149 338.5,368C 350.41,374.079 360.91,372.246 370,362.5C 381.152,346.403 384.485,328.736 380,309.5C 377.765,299.193 372.598,290.693 364.5,284C 356.358,278.439 348.025,278.106 339.5,283C 335.612,285.837 331.779,288.67 328,291.5C 320.641,290.579 313.141,289.246 305.5,287.5C 303.5,287.667 301.5,287.833 299.5,288C 296.447,289.527 293.447,291.027 290.5,292.5C 291.167,291.5 291.833,290.5 292.5,289.5C 296.145,288.013 299.812,286.513 303.5,285C 310.773,284.299 317.773,283.633 324.5,283C 328.057,280.454 331.39,277.454 334.5,274C 346.978,266.276 358.978,266.943 370.5,276C 381.991,288.158 388.158,302.658 389,319.5C 391.267,342.039 384.434,361.205 368.5,377C 353.563,385.774 340.063,383.941 328,371.5C 323.366,365.224 319.533,358.558 316.5,351.5C 313.069,350.316 309.735,350.816 306.5,353C 301.066,357.594 295.733,362.428 290.5,367.5C 288.664,368.919 286.664,370.086 284.5,371C 275.471,373.492 269.804,370.325 267.5,361.5 Z"/></g>
<g><path style="opacity:0.255" fill="#bee4f8" d="M 267.5,361.5 C 266.184,358.592 265.184,355.592 264.5,352.5C 264.123,347.547 264.789,342.881 266.5,338.5C 265.917,346.764 267.084,354.764 270,362.5C 274.428,367.977 279.595,368.811 285.5,365C 286.878,363.287 288.545,361.953 290.5,361C 297.185,352.653 304.185,344.653 311.5,337C 314.127,335.103 316.961,333.603 320,332.5C 321.307,333.772 322.807,334.772 324.5,335.5C 327.401,345.803 332.735,354.636 340.5,362C 352.651,367.629 362.485,364.796 370,353.5C 379.56,335.662 379.894,317.662 371,299.5C 358.101,282.522 344.768,282.189 331,298.5C 322.357,294.635 313.19,291.301 303.5,288.5C 296.843,289.844 291.51,293.177 287.5,298.5C 284.65,302.199 282.317,306.199 280.5,310.5C 279.167,311.5 277.833,312.5 276.5,313.5C 278.44,304.602 283.107,297.602 290.5,292.5C 293.447,291.027 296.447,289.527 299.5,288C 301.5,287.833 303.5,287.667 305.5,287.5C 313.141,289.246 320.641,290.579 328,291.5C 331.779,288.67 335.612,285.837 339.5,283C 348.025,278.106 356.358,278.439 364.5,284C 372.598,290.693 377.765,299.193 380,309.5C 384.485,328.736 381.152,346.403 370,362.5C 360.91,372.246 350.41,374.079 338.5,368C 330.306,360.149 324.139,350.983 320,340.5C 317.911,340.745 315.911,340.745 314,340.5C 305.167,346.667 297.667,354.167 291.5,363C 287.601,366.366 283.101,368.533 278,369.5C 273.47,368.131 269.97,365.465 267.5,361.5 Z"/></g>
<g><path style="opacity:0.422" fill="#99d6f5" d="M 399.5,281.5 C 421.805,322.52 419.305,362.187 392,400.5C 369.947,425.249 345.447,428.083 318.5,409C 311.546,401.546 305.212,393.712 299.5,385.5C 289.773,384.321 280.106,382.488 270.5,380C 268.302,376.977 265.969,374.144 263.5,371.5C 262.79,367.975 261.79,364.642 260.5,361.5C 260.009,353.344 260.842,345.344 263,337.5C 263.383,336.944 263.883,336.611 264.5,336.5C 261.305,348.421 261.972,360.088 266.5,371.5C 269.41,376.97 274.077,379.97 280.5,380.5C 285.205,380.123 290.039,379.123 295,377.5C 297.333,378.167 299.667,378.833 302,379.5C 302.333,379.167 302.667,378.833 303,378.5C 308.312,386.93 314.478,394.763 321.5,402C 346.471,419.62 368.971,416.787 389,393.5C 412.197,358.049 415.697,320.715 399.5,281.5 Z"/></g>
<g><path style="opacity:0.221" fill="#c4e6f9" d="M 266.5,338.5 C 266.595,336.214 267.262,334.214 268.5,332.5C 266.953,340.942 267.453,349.275 270,357.5C 273.255,365.026 278.422,366.526 285.5,362C 294.364,352.406 302.864,342.573 311,332.5C 315.697,327.087 320.697,322.754 326,319.5C 327.891,323.611 328.891,327.944 329,332.5C 331.419,338.672 334.419,344.672 338,350.5C 349.076,360.491 358.743,359.158 367,346.5C 374.784,330.556 373.784,315.222 364,300.5C 354.372,291.976 345.372,292.643 337,302.5C 336.586,302.043 336.086,301.709 335.5,301.5C 333.912,305.255 331.412,308.255 328,310.5C 325.399,307.377 322.899,304.044 320.5,300.5C 310.027,289.478 299.027,288.811 287.5,298.5C 291.51,293.177 296.843,289.844 303.5,288.5C 313.19,291.301 322.357,294.635 331,298.5C 344.768,282.189 358.101,282.522 371,299.5C 379.894,317.662 379.56,335.662 370,353.5C 362.485,364.796 352.651,367.629 340.5,362C 332.735,354.636 327.401,345.803 324.5,335.5C 322.807,334.772 321.307,333.772 320,332.5C 316.961,333.603 314.127,335.103 311.5,337C 304.185,344.653 297.185,352.653 290.5,361C 288.545,361.953 286.878,363.287 285.5,365C 279.595,368.811 274.428,367.977 270,362.5C 267.084,354.764 265.917,346.764 266.5,338.5 Z"/></g>
<g><path style="opacity:0.683" fill="#4fbeee" d="M 598.5,214.5 C 599.219,216.764 599.552,219.097 599.5,221.5C 595.984,235.538 591.817,249.538 587,263.5C 580.163,272.334 572.663,280.501 564.5,288C 556.466,291.967 547.966,293.8 539,293.5C 528.205,293.589 517.705,291.922 507.5,288.5C 506.478,288.855 505.811,289.522 505.5,290.5C 499.253,286.922 493.92,282.256 489.5,276.5C 489.735,275.903 490.235,275.57 491,275.5C 492.731,276.741 494.564,277.741 496.5,278.5C 497.987,280.605 499.987,282.272 502.5,283.5C 553.071,298.065 583.404,279.732 593.5,228.5C 594.878,223.607 596.545,218.94 598.5,214.5 Z"/></g>
<g><path style="opacity:0.212" fill="#cceafa" d="M 268.5,332.5 C 268.796,330.597 269.463,328.93 270.5,327.5C 269.965,332.176 269.299,336.843 268.5,341.5C 268.312,350.849 272.646,356.516 281.5,358.5C 282.925,358.377 284.258,358.043 285.5,357.5C 294.887,346.42 304.054,335.086 313,323.5C 318.065,316.577 318.732,309.243 315,301.5C 306.621,292.765 297.787,292.265 288.5,300C 286.353,303.969 283.687,307.469 280.5,310.5C 282.317,306.199 284.65,302.199 287.5,298.5C 299.027,288.811 310.027,289.478 320.5,300.5C 322.899,304.044 325.399,307.377 328,310.5C 331.412,308.255 333.912,305.255 335.5,301.5C 336.086,301.709 336.586,302.043 337,302.5C 345.372,292.643 354.372,291.976 364,300.5C 373.784,315.222 374.784,330.556 367,346.5C 358.743,359.158 349.076,360.491 338,350.5C 334.419,344.672 331.419,338.672 329,332.5C 328.891,327.944 327.891,323.611 326,319.5C 320.697,322.754 315.697,327.087 311,332.5C 302.864,342.573 294.364,352.406 285.5,362C 278.422,366.526 273.255,365.026 270,357.5C 267.453,349.275 266.953,340.942 268.5,332.5 Z"/></g>
<g><path style="opacity:0.757" fill="#26b4e9" d="M 599.5,221.5 C 600.773,229.89 600.44,238.224 598.5,246.5C 589.92,282.725 566.92,300.058 529.5,298.5C 521.039,297.235 513.039,294.569 505.5,290.5C 505.811,289.522 506.478,288.855 507.5,288.5C 517.705,291.922 528.205,293.589 539,293.5C 547.966,293.8 556.466,291.967 564.5,288C 572.663,280.501 580.163,272.334 587,263.5C 591.817,249.538 595.984,235.538 599.5,221.5 Z"/></g>
<g><path style="opacity:0.5" fill="#d7eefb" d="M 285.5,357.5 C 285.557,356.391 285.89,355.391 286.5,354.5C 287.5,351.833 288.5,349.167 289.5,346.5C 293.072,339.686 296.406,332.686 299.5,325.5C 300.801,322.899 302.134,320.232 303.5,317.5C 304.764,315.228 304.598,312.895 303,310.5C 296.84,305.52 290.673,305.687 284.5,311C 281.963,313.872 279.13,316.372 276,318.5C 274.643,321.898 272.81,324.898 270.5,327.5C 272.298,322.78 274.298,318.114 276.5,313.5C 277.833,312.5 279.167,311.5 280.5,310.5C 283.687,307.469 286.353,303.969 288.5,300C 297.787,292.265 306.621,292.765 315,301.5C 318.732,309.243 318.065,316.577 313,323.5C 304.054,335.086 294.887,346.42 285.5,357.5 Z"/></g>
<g><path style="opacity:0.9" fill="#f4fafe" d="M 303.5,317.5 C 302.134,320.232 300.801,322.899 299.5,325.5C 294.8,315.476 288.634,314.81 281,323.5C 276.409,330.019 275.409,337.019 278,344.5C 281.383,347.592 285.217,348.259 289.5,346.5C 288.5,349.167 287.5,351.833 286.5,354.5C 275.91,355.244 270.91,350.244 271.5,339.5C 271.932,328.22 276.599,319.053 285.5,312C 290.918,307.506 296.251,307.506 301.5,312C 302.861,313.584 303.528,315.418 303.5,317.5 Z"/></g>
<g><path style="opacity:0.053" fill="#d7eefb" d="M 347.5,312.5 C 356.274,312.443 360.607,316.943 360.5,326C 360.135,329.763 358.968,333.263 357,336.5C 350.168,341.385 345.501,339.719 343,331.5C 341.28,324.283 342.78,317.949 347.5,312.5 Z"/></g>
<g><path style="opacity:0.97" fill="#fcfefe" d="M 299.5,325.5 C 296.406,332.686 293.072,339.686 289.5,346.5C 285.217,348.259 281.383,347.592 278,344.5C 275.409,337.019 276.409,330.019 281,323.5C 288.634,314.81 294.8,315.476 299.5,325.5 Z"/></g>
<g><path style="opacity:0.72" fill="#8dc8ed" d="M 297.5,273.5 C 297.5,274.167 297.5,274.833 297.5,275.5C 297.649,276.552 297.483,277.552 297,278.5C 293.3,282.535 289.3,286.202 285,289.5C 283.441,291.217 282.608,293.217 282.5,295.5C 281.476,297.512 279.976,299.178 278,300.5C 273.083,310.253 268.75,320.253 265,330.5C 264.505,332.473 264.338,334.473 264.5,336.5C 263.883,336.611 263.383,336.944 263,337.5C 260.842,345.344 260.009,353.344 260.5,361.5C 260.5,364.167 260.5,366.833 260.5,369.5C 258.955,368.77 258.122,367.437 258,365.5C 257.828,358.654 257.328,351.987 256.5,345.5C 261.957,326.299 268.624,307.633 276.5,289.5C 276.369,290.239 276.536,290.906 277,291.5C 278.637,289.19 280.804,287.69 283.5,287C 285.956,284.563 288.29,282.063 290.5,279.5C 292.789,277.552 295.122,275.552 297.5,273.5 Z"/></g>
<g><path style="opacity:0.503" fill="#8cd2f4" d="M 421.5,332.5 C 425.164,348.04 423.997,363.373 418,378.5C 416.167,382.833 414.333,387.167 412.5,391.5C 412.709,392.086 413.043,392.586 413.5,393C 410.991,396.812 409.324,400.646 408.5,404.5C 409.936,406.036 410.769,407.703 411,409.5C 421.628,403.828 430.962,405.495 439,414.5C 440.411,416.65 441.245,418.984 441.5,421.5C 438.362,419.193 435.695,416.359 433.5,413C 427.081,410.761 421.081,412.094 415.5,417C 407.759,429.648 400.925,442.815 395,456.5C 391.985,464.454 393.485,471.288 399.5,477C 406.347,478.572 413.013,477.738 419.5,474.5C 419.5,475.167 419.5,475.833 419.5,476.5C 416.279,477.111 413.279,478.278 410.5,480C 394.168,482 387.335,474.833 390,458.5C 394.308,446.572 398.808,434.739 403.5,423C 403.167,422.667 402.833,422.333 402.5,422C 404.036,420.401 404.536,418.567 404,416.5C 403.333,417.167 402.667,417.833 402,418.5C 401.333,417.167 400.667,415.833 400,414.5C 390.257,424.439 378.424,431.939 364.5,437C 345.281,441.258 328.281,436.925 313.5,424C 304.073,414.28 295.739,403.78 288.5,392.5C 283.182,389.333 277.515,386.833 271.5,385C 268.152,382.499 265.818,379.332 264.5,375.5C 266.641,378.472 269.308,380.972 272.5,383C 279.993,384.637 287.326,386.804 294.5,389.5C 299.643,396.424 304.81,403.424 310,410.5C 339.22,437.852 367.554,436.852 395,407.5C 419.942,375.184 425.276,340.184 411,302.5C 401.837,280.848 392.17,259.514 382,238.5C 378.324,233.993 374.49,229.659 370.5,225.5C 366.334,223.783 362.334,221.95 358.5,220C 358.833,219.667 359.167,219.333 359.5,219C 358.648,216.794 357.648,214.627 356.5,212.5C 357.533,204.159 356.033,196.159 352,188.5C 347.348,182.751 341.514,181.084 334.5,183.5C 335.263,182.732 336.263,182.232 337.5,182C 344.403,180.912 350.403,182.746 355.5,187.5C 359.224,196.616 363.724,205.282 369,213.5C 373.834,217.516 376.834,222.516 378,228.5C 398.606,260.45 413.106,295.117 421.5,332.5 Z"/></g>
<g><path style="opacity:0.444" fill="#93d4f5" d="M 264.5,375.5 C 264.167,374.167 263.833,372.833 263.5,371.5C 265.969,374.144 268.302,376.977 270.5,380C 280.106,382.488 289.773,384.321 299.5,385.5C 305.212,393.712 311.546,401.546 318.5,409C 345.447,428.083 369.947,425.249 392,400.5C 419.305,362.187 421.805,322.52 399.5,281.5C 398.463,280.07 397.796,278.403 397.5,276.5C 392.242,262.649 385.408,249.649 377,237.5C 370.765,233.956 364.931,231.122 359.5,229C 354.203,229.07 352.203,227.07 353.5,223C 352.692,222.692 352.025,222.192 351.5,221.5C 352.615,220.402 352.615,219.235 351.5,218C 352.827,212.884 353.827,207.717 354.5,202.5C 353.805,189.725 347.138,183.725 334.5,184.5C 334.5,184.167 334.5,183.833 334.5,183.5C 341.514,181.084 347.348,182.751 352,188.5C 356.033,196.159 357.533,204.159 356.5,212.5C 357.648,214.627 358.648,216.794 359.5,219C 359.167,219.333 358.833,219.667 358.5,220C 362.334,221.95 366.334,223.783 370.5,225.5C 374.49,229.659 378.324,233.993 382,238.5C 392.17,259.514 401.837,280.848 411,302.5C 425.276,340.184 419.942,375.184 395,407.5C 367.554,436.852 339.22,437.852 310,410.5C 304.81,403.424 299.643,396.424 294.5,389.5C 287.326,386.804 279.993,384.637 272.5,383C 269.308,380.972 266.641,378.472 264.5,375.5 Z"/></g>
<g><path style="opacity:0.849" fill="#e8f4fc" d="M 303.5,317.5 C 303.528,315.418 302.861,313.584 301.5,312C 296.251,307.506 290.918,307.506 285.5,312C 276.599,319.053 271.932,328.22 271.5,339.5C 270.91,350.244 275.91,355.244 286.5,354.5C 285.89,355.391 285.557,356.391 285.5,357.5C 284.258,358.043 282.925,358.377 281.5,358.5C 272.646,356.516 268.312,350.849 268.5,341.5C 269.299,336.843 269.965,332.176 270.5,327.5C 272.81,324.898 274.643,321.898 276,318.5C 279.13,316.372 281.963,313.872 284.5,311C 290.673,305.687 296.84,305.52 303,310.5C 304.598,312.895 304.764,315.228 303.5,317.5 Z"/></g>
<g><path style="opacity:0.525" fill="#86cff4" d="M 421.5,332.5 C 422.167,333.167 422.833,333.833 423.5,334.5C 425.66,347.723 427.993,361.057 430.5,374.5C 430.065,378.71 429.399,382.877 428.5,387C 429.206,389.142 428.872,391.309 427.5,393.5C 432.158,401.571 436.991,409.571 442,417.5C 444.771,425.408 445.104,433.408 443,441.5C 440.109,447.663 437.442,453.996 435,460.5C 430.98,467.019 425.813,472.352 419.5,476.5C 419.5,475.833 419.5,475.167 419.5,474.5C 430.49,465.31 437.656,453.643 441,439.5C 441.499,433.509 441.666,427.509 441.5,421.5C 441.245,418.984 440.411,416.65 439,414.5C 430.962,405.495 421.628,403.828 411,409.5C 410.769,407.703 409.936,406.036 408.5,404.5C 409.324,400.646 410.991,396.812 413.5,393C 413.043,392.586 412.709,392.086 412.5,391.5C 414.333,387.167 416.167,382.833 418,378.5C 423.997,363.373 425.164,348.04 421.5,332.5 Z"/></g>
<g><path style="opacity:0.638" fill="#59bcec" d="M 427.5,308.5 C 428.117,308.611 428.617,308.944 429,309.5C 432.159,321.889 435.992,333.889 440.5,345.5C 442.321,357.949 443.987,370.449 445.5,383C 445.673,387.605 445.673,392.272 445.5,397C 448.722,404.799 450.722,412.966 451.5,421.5C 451.747,422.713 452.414,423.38 453.5,423.5C 452.967,427.965 451.967,432.298 450.5,436.5C 449.732,435.737 449.232,434.737 449,433.5C 449.19,423.3 447.19,413.634 443,404.5C 441.663,386.618 439.496,368.952 436.5,351.5C 435.212,343.723 433.545,336.056 431.5,328.5C 432.124,328.083 432.457,327.416 432.5,326.5C 430.826,320.482 429.16,314.482 427.5,308.5 Z"/></g>
<g><path style="opacity:0.607" fill="#71c5ef" d="M 374.5,202.5 C 386.053,227.656 397.887,252.989 410,278.5C 410.333,281.167 410.667,283.833 411,286.5C 415.653,299.85 421.153,312.683 427.5,325C 428.167,328 428.833,331 429.5,334C 431.921,339.91 434.255,345.743 436.5,351.5C 439.496,368.952 441.663,386.618 443,404.5C 447.19,413.634 449.19,423.3 449,433.5C 449.232,434.737 449.732,435.737 450.5,436.5C 446.982,451.536 440.316,464.869 430.5,476.5C 430.631,475.624 430.298,474.957 429.5,474.5C 425.356,477.476 421.356,480.643 417.5,484C 415.323,485.202 412.989,485.702 410.5,485.5C 424.941,476.885 435.775,464.885 443,449.5C 446.292,438.494 446.292,427.494 443,416.5C 439.236,408.529 435.402,400.696 431.5,393C 432.574,392.261 433.241,391.261 433.5,390C 433.887,378.404 433.387,366.904 432,355.5C 429.259,342.683 425.926,330.016 422,317.5C 421.392,315.934 420.558,314.6 419.5,313.5C 414.463,299.904 409.297,286.238 404,272.5C 396.573,258.981 390.24,244.981 385,230.5C 374.136,214.753 363.803,198.753 354,182.5C 351.053,179.34 347.386,177.673 343,177.5C 341.124,177.525 339.624,178.191 338.5,179.5C 332.093,180.674 332.093,179.841 338.5,177C 337.552,176.517 336.552,176.351 335.5,176.5C 342.062,171.633 348.728,171.466 355.5,176C 363.208,183.871 369.542,192.704 374.5,202.5 Z"/></g>
<g><path style="opacity:0.649" fill="#5fc5f1" d="M 258.5,378.5 C 259.789,382.044 261.456,385.377 263.5,388.5C 265.35,414.637 274.184,437.971 290,458.5C 315.376,484.219 345.543,492.552 380.5,483.5C 385.455,484.541 390.455,485.208 395.5,485.5C 400.5,485.5 405.5,485.5 410.5,485.5C 408.611,486.322 406.611,487.155 404.5,488C 397.962,488.615 391.462,489.448 385,490.5C 330.576,504.667 291.576,486 268,434.5C 266.178,428.879 264.511,423.212 263,417.5C 261.609,404.479 260.109,391.479 258.5,378.5 Z"/></g>
<g><path style="opacity:0.589" fill="#76cbf2" d="M 419.5,313.5 C 420.558,314.6 421.392,315.934 422,317.5C 425.926,330.016 429.259,342.683 432,355.5C 433.387,366.904 433.887,378.404 433.5,390C 433.241,391.261 432.574,392.261 431.5,393C 435.402,400.696 439.236,408.529 443,416.5C 446.292,427.494 446.292,438.494 443,449.5C 435.775,464.885 424.941,476.885 410.5,485.5C 405.5,485.5 400.5,485.5 395.5,485.5C 391.683,484.16 388.017,482.326 384.5,480C 382.167,477 379.833,474 377.5,471C 375.186,469.602 372.853,469.435 370.5,470.5C 369.833,469.833 369.167,469.167 368.5,468.5C 347.326,473.633 327.66,469.8 309.5,457C 295.449,446.282 284.282,433.115 276,417.5C 272.571,407.353 268.405,397.686 263.5,388.5C 261.456,385.377 259.789,382.044 258.5,378.5C 257.831,373.486 256.997,368.486 256,363.5C 255.502,361.456 254.335,360.122 252.5,359.5C 253.526,354.728 254.859,350.061 256.5,345.5C 257.328,351.987 257.828,358.654 258,365.5C 258.122,367.437 258.955,368.77 260.5,369.5C 260.5,370.5 260.5,371.5 260.5,372.5C 262.346,378.527 265.013,384.194 268.5,389.5C 272.852,393.019 276.686,397.019 280,401.5C 289.714,425.213 306.214,442.38 329.5,453C 343.3,458.632 357.134,458.799 371,453.5C 373.555,454.39 376.055,454.057 378.5,452.5C 379.06,454.377 380.227,456.377 382,458.5C 383.497,480.212 394.33,487.546 414.5,480.5C 416.349,479.407 418.016,478.074 419.5,476.5C 425.813,472.352 430.98,467.019 435,460.5C 437.442,453.996 440.109,447.663 443,441.5C 445.104,433.408 444.771,425.408 442,417.5C 436.991,409.571 432.158,401.571 427.5,393.5C 428.872,391.309 429.206,389.142 428.5,387C 429.399,382.877 430.065,378.71 430.5,374.5C 427.993,361.057 425.66,347.723 423.5,334.5C 422.643,327.407 421.31,320.407 419.5,313.5 Z"/></g>
<g><path style="opacity:0.524" fill="#86d0f4" d="M 260.5,361.5 C 261.79,364.642 262.79,367.975 263.5,371.5C 263.833,372.833 264.167,374.167 264.5,375.5C 265.818,379.332 268.152,382.499 271.5,385C 277.515,386.833 283.182,389.333 288.5,392.5C 295.739,403.78 304.073,414.28 313.5,424C 328.281,436.925 345.281,441.258 364.5,437C 378.424,431.939 390.257,424.439 400,414.5C 400.667,415.833 401.333,417.167 402,418.5C 402.667,417.833 403.333,417.167 404,416.5C 404.536,418.567 404.036,420.401 402.5,422C 402.833,422.333 403.167,422.667 403.5,423C 398.808,434.739 394.308,446.572 390,458.5C 387.335,474.833 394.168,482 410.5,480C 413.279,478.278 416.279,477.111 419.5,476.5C 418.016,478.074 416.349,479.407 414.5,480.5C 408.87,481.521 403.204,481.687 397.5,481C 391.217,478.455 387.551,473.789 386.5,467C 386.607,464.065 386.607,461.065 386.5,458C 387.334,454.162 388.668,450.162 390.5,446C 390.167,445.667 389.833,445.333 389.5,445C 391.746,442.573 392.412,439.906 391.5,437C 387.585,436.513 384.085,438.013 381,441.5C 380.667,440.833 380.333,440.167 380,439.5C 362.602,449.131 344.769,449.964 326.5,442C 314.458,435.29 304.292,426.456 296,415.5C 292.151,408.456 287.818,401.789 283,395.5C 278.709,391.352 273.875,388.019 268.5,385.5C 265.557,381.27 262.891,376.937 260.5,372.5C 260.5,371.5 260.5,370.5 260.5,369.5C 260.5,366.833 260.5,364.167 260.5,361.5 Z"/></g>
<g><path style="opacity:0.741" fill="#38b3e8" d="M 427.5,294.5 C 442.094,326.628 451.427,360.295 455.5,395.5C 455.73,404.922 455.064,414.255 453.5,423.5C 452.414,423.38 451.747,422.713 451.5,421.5C 450.722,412.966 448.722,404.799 445.5,397C 445.673,392.272 445.673,387.605 445.5,383C 443.987,370.449 442.321,357.949 440.5,345.5C 438.968,336.037 436.801,326.704 434,317.5C 429.909,310.392 427.743,302.726 427.5,294.5 Z"/></g>
<g><path style="opacity:0.542" fill="#80cef3" d="M 260.5,372.5 C 262.891,376.937 265.557,381.27 268.5,385.5C 273.875,388.019 278.709,391.352 283,395.5C 287.818,401.789 292.151,408.456 296,415.5C 304.292,426.456 314.458,435.29 326.5,442C 344.769,449.964 362.602,449.131 380,439.5C 380.333,440.167 380.667,440.833 381,441.5C 384.085,438.013 387.585,436.513 391.5,437C 392.412,439.906 391.746,442.573 389.5,445C 389.833,445.333 390.167,445.667 390.5,446C 388.668,450.162 387.334,454.162 386.5,458C 386.607,461.065 386.607,464.065 386.5,467C 387.551,473.789 391.217,478.455 397.5,481C 403.204,481.687 408.87,481.521 414.5,480.5C 394.33,487.546 383.497,480.212 382,458.5C 380.227,456.377 379.06,454.377 378.5,452.5C 376.055,454.057 373.555,454.39 371,453.5C 357.134,458.799 343.3,458.632 329.5,453C 306.214,442.38 289.714,425.213 280,401.5C 276.686,397.019 272.852,393.019 268.5,389.5C 265.013,384.194 262.346,378.527 260.5,372.5 Z"/></g>
<g><path style="opacity:0.025" fill="#fefefe" d="M 455.5,395.5 C 463.393,402.283 467.893,410.949 469,421.5C 470.816,453.026 459.649,478.86 435.5,499C 422.338,506.329 408.338,508.495 393.5,505.5C 395.833,504.167 398.167,502.833 400.5,501.5C 405.335,499.586 409.669,496.919 413.5,493.5C 414.833,492.833 415.833,491.833 416.5,490.5C 422.145,486.855 426.812,482.188 430.5,476.5C 440.316,464.869 446.982,451.536 450.5,436.5C 451.967,432.298 452.967,427.965 453.5,423.5C 455.064,414.255 455.73,404.922 455.5,395.5 Z"/></g>
<g><path style="opacity:0.627" fill="#69c8f2" d="M 263.5,388.5 C 268.405,397.686 272.571,407.353 276,417.5C 284.282,433.115 295.449,446.282 309.5,457C 327.66,469.8 347.326,473.633 368.5,468.5C 369.167,469.167 369.833,469.833 370.5,470.5C 372.853,469.435 375.186,469.602 377.5,471C 379.833,474 382.167,477 384.5,480C 388.017,482.326 391.683,484.16 395.5,485.5C 390.455,485.208 385.455,484.541 380.5,483.5C 345.543,492.552 315.376,484.219 290,458.5C 274.184,437.971 265.35,414.637 263.5,388.5 Z"/></g>
<g><path style="opacity:0.69" fill="#9ed7f5" d="M 441.5,421.5 C 441.666,427.509 441.499,433.509 441,439.5C 437.656,453.643 430.49,465.31 419.5,474.5C 413.013,477.738 406.347,478.572 399.5,477C 393.485,471.288 391.985,464.454 395,456.5C 400.925,442.815 407.759,429.648 415.5,417C 421.081,412.094 427.081,410.761 433.5,413C 435.695,416.359 438.362,419.193 441.5,421.5 Z"/></g>
<g><path style="opacity:0.7" fill="#18b0e8" d="M 248.5,376.5 C 249.818,379.258 250.485,382.424 250.5,386C 246.192,426.419 258.859,460.419 288.5,488C 321.001,511.938 356.001,516.271 393.5,501C 396.039,500.204 398.372,500.371 400.5,501.5C 398.167,502.833 395.833,504.167 393.5,505.5C 355.961,519.274 320.628,515.107 287.5,493C 264.835,474.182 251.669,450.016 248,420.5C 246.819,410.2 246.319,399.867 246.5,389.5C 247.408,385.242 248.075,380.908 248.5,376.5 Z"/></g>
<g><path style="opacity:0.701" fill="#aadcf7" d="M 436.5,442.5 C 436.666,437.821 436.499,433.155 436,428.5C 431.584,419.826 425.917,419.159 419,426.5C 410.871,437.925 405.037,450.425 401.5,464C 401.886,468.888 404.553,471.722 409.5,472.5C 411.919,472.086 413.919,471.086 415.5,469.5C 420.447,466.681 425.113,463.348 429.5,459.5C 425.41,468.732 418.243,474.065 408,475.5C 403.098,475.384 399.764,473.051 398,468.5C 396.787,460.671 398.953,454.005 404.5,448.5C 406.849,444.805 408.349,440.805 409,436.5C 411.826,433.516 414.159,430.183 416,426.5C 420.059,420.206 425.559,418.04 432.5,420C 436.818,423.825 438.485,428.658 437.5,434.5C 437.497,437.355 437.164,440.022 436.5,442.5 Z"/></g>
<g><path style="opacity:0.696" fill="#51beee" d="M 252.5,359.5 C 254.335,360.122 255.502,361.456 256,363.5C 256.997,368.486 257.831,373.486 258.5,378.5C 260.109,391.479 261.609,404.479 263,417.5C 264.511,423.212 266.178,428.879 268,434.5C 291.576,486 330.576,504.667 385,490.5C 391.462,489.448 397.962,488.615 404.5,488C 406.611,487.155 408.611,486.322 410.5,485.5C 412.989,485.702 415.323,485.202 417.5,484C 421.356,480.643 425.356,477.476 429.5,474.5C 430.298,474.957 430.631,475.624 430.5,476.5C 426.812,482.188 422.145,486.855 416.5,490.5C 415.844,489.722 415.011,489.056 414,488.5C 396.891,492.536 379.724,496.369 362.5,500C 320.417,502.544 289.25,485.377 269,448.5C 266.496,442.98 263.996,437.48 261.5,432C 256.811,413.641 254.311,395.141 254,376.5C 253.613,373.401 252.446,370.734 250.5,368.5C 250.7,365.37 251.366,362.37 252.5,359.5 Z"/></g>
<g><path style="opacity:0.715" fill="#b5e0f8" d="M 436.5,442.5 C 436.073,445.01 435.407,447.343 434.5,449.5C 435.894,442.119 435.727,434.786 434,427.5C 427.857,421.244 423.69,422.244 421.5,430.5C 420.833,431.833 420.167,433.167 419.5,434.5C 416.075,441.685 412.409,448.685 408.5,455.5C 407.11,456.899 406.11,458.566 405.5,460.5C 401.957,462.693 401.623,465.36 404.5,468.5C 408.107,469.489 411.774,469.823 415.5,469.5C 413.919,471.086 411.919,472.086 409.5,472.5C 404.553,471.722 401.886,468.888 401.5,464C 405.037,450.425 410.871,437.925 419,426.5C 425.917,419.159 431.584,419.826 436,428.5C 436.499,433.155 436.666,437.821 436.5,442.5 Z"/></g>
<g><path style="opacity:0.889" fill="#d7eefb" d="M 434.5,449.5 C 431.986,452.364 430.32,455.698 429.5,459.5C 425.113,463.348 420.447,466.681 415.5,469.5C 411.774,469.823 408.107,469.489 404.5,468.5C 401.623,465.36 401.957,462.693 405.5,460.5C 407.981,463.718 411.314,464.885 415.5,464C 428.079,458.685 433.245,449.185 431,435.5C 429.299,431.125 426.133,429.458 421.5,430.5C 423.69,422.244 427.857,421.244 434,427.5C 435.727,434.786 435.894,442.119 434.5,449.5 Z"/></g>
<g><path style="opacity:0.937" fill="#edf7fd" d="M 421.5,430.5 C 426.133,429.458 429.299,431.125 431,435.5C 433.245,449.185 428.079,458.685 415.5,464C 411.314,464.885 407.981,463.718 405.5,460.5C 406.11,458.566 407.11,456.899 408.5,455.5C 408.513,458.695 410.18,460.362 413.5,460.5C 424.061,457.065 428.895,449.732 428,438.5C 426.323,434.949 423.49,433.616 419.5,434.5C 420.167,433.167 420.833,431.833 421.5,430.5 Z"/></g>
<g><path style="opacity:0.989" fill="#fafdfe" d="M 419.5,434.5 C 423.49,433.616 426.323,434.949 428,438.5C 428.895,449.732 424.061,457.065 413.5,460.5C 410.18,460.362 408.513,458.695 408.5,455.5C 412.409,448.685 416.075,441.685 419.5,434.5 Z"/></g>
<g><path style="opacity:0.718" fill="#3fb9ec" d="M 250.5,368.5 C 252.446,370.734 253.613,373.401 254,376.5C 254.311,395.141 256.811,413.641 261.5,432C 263.996,437.48 266.496,442.98 269,448.5C 289.25,485.377 320.417,502.544 362.5,500C 379.724,496.369 396.891,492.536 414,488.5C 415.011,489.056 415.844,489.722 416.5,490.5C 415.833,491.833 414.833,492.833 413.5,493.5C 413.265,492.903 412.765,492.57 412,492.5C 396.845,496.481 381.678,500.648 366.5,505C 316.855,509.101 281.688,488.601 261,443.5C 253.5,426.011 250.667,407.845 252.5,389C 252.236,383.104 251.236,377.604 249.5,372.5C 249.433,371.041 249.766,369.708 250.5,368.5 Z"/></g>
<g><path style="opacity:0.747" fill="#29b5ea" d="M 249.5,372.5 C 251.236,377.604 252.236,383.104 252.5,389C 250.667,407.845 253.5,426.011 261,443.5C 281.688,488.601 316.855,509.101 366.5,505C 381.678,500.648 396.845,496.481 412,492.5C 412.765,492.57 413.265,492.903 413.5,493.5C 409.669,496.919 405.335,499.586 400.5,501.5C 398.372,500.371 396.039,500.204 393.5,501C 356.001,516.271 321.001,511.938 288.5,488C 258.859,460.419 246.192,426.419 250.5,386C 250.485,382.424 249.818,379.258 248.5,376.5C 248.833,375.167 249.167,373.833 249.5,372.5 Z"/></g>
</svg>
