<?xml version="1.0" encoding="UTF-8"?>
<!DOCTYPE svg PUBLIC "-//W3C//DTD SVG 1.1//EN" "http://www.w3.org/Graphics/SVG/1.1/DTD/svg11.dtd">
<svg xmlns="http://www.w3.org/2000/svg" version="1.1" width="681px" height="743px" style="shape-rendering:geometricPrecision; text-rendering:geometricPrecision; image-rendering:optimizeQuality; fill-rule:evenodd; clip-rule:evenodd" xmlns:xlink="http://www.w3.org/1999/xlink">
<g><path style="opacity:0.963" fill="#0056a7" d="M 230.5,-0.5 C 232.833,-0.5 235.167,-0.5 237.5,-0.5C 223.626,35.1884 220.293,71.8551 227.5,109.5C 232.479,133.445 241.812,155.445 255.5,175.5C 262.691,187.029 271.358,197.362 281.5,206.5C 288.919,213.588 296.919,219.921 305.5,225.5C 314.056,232.025 323.389,237.358 333.5,241.5C 347.248,248.748 361.915,253.415 377.5,255.5C 388.546,258.08 399.879,259.08 411.5,258.5C 439.598,258.708 466.265,252.708 491.5,240.5C 511.787,230.854 529.454,217.854 544.5,201.5C 569.536,176.447 586.036,146.447 594,111.5C 601.248,75.376 598.748,40.0426 586.5,5.5C 586.167,3.5 585.833,1.5 585.5,-0.5C 588.5,-0.5 591.5,-0.5 594.5,-0.5C 616.797,70.4036 610.63,138.737 576,204.5C 532.752,273.868 470.252,303.702 388.5,294C 327.336,281.847 279.836,249.68 246,197.5C 212.454,143.809 204.454,86.4756 222,25.5C 224.541,16.7112 227.374,8.04452 230.5,-0.5 Z"/></g>
<g><path style="opacity:1" fill="#a1d5f3" d="M 237.5,-0.5 C 238.833,-0.5 240.167,-0.5 241.5,-0.5C 230.208,21.9199 226.041,45.5866 229,70.5C 230.126,69.0564 231.626,68.3898 233.5,68.5C 237.723,69.264 241.889,70.264 246,71.5C 247.03,71.8361 247.53,72.5028 247.5,73.5C 246.833,75.8333 246.167,78.1667 245.5,80.5C 240.219,78.5051 234.886,77.5051 229.5,77.5C 228.184,85.9616 228.184,94.295 229.5,102.5C 229.5,104.167 229.5,105.833 229.5,107.5C 229.5,108.833 228.833,109.5 227.5,109.5C 220.293,71.8551 223.626,35.1884 237.5,-0.5 Z"/></g>
<g><path style="opacity:1" fill="#b2dff8" d="M 241.5,-0.5 C 245.833,-0.5 250.167,-0.5 254.5,-0.5C 248.667,9.82636 244.501,20.8264 242,32.5C 238.44,37.2838 236.273,42.6172 235.5,48.5C 240.532,49.3414 245.532,50.3414 250.5,51.5C 250.5,55.5 250.5,59.5 250.5,63.5C 250.5,64.8333 250.5,66.1667 250.5,67.5C 249.596,68.209 249.263,69.209 249.5,70.5C 249.068,71.7095 248.401,72.7095 247.5,73.5C 247.53,72.5028 247.03,71.8361 246,71.5C 241.889,70.264 237.723,69.264 233.5,68.5C 231.626,68.3898 230.126,69.0564 229,70.5C 226.041,45.5866 230.208,21.9199 241.5,-0.5 Z"/></g>
<g><path style="opacity:1" fill="#c5e6f9" d="M 254.5,-0.5 C 264.167,-0.5 273.833,-0.5 283.5,-0.5C 283.196,0.14987 282.863,0.816537 282.5,1.5C 280.709,2.16985 279.042,2.83652 277.5,3.5C 274.813,3.33591 272.146,3.50258 269.5,4C 260.057,10.3886 252.557,18.5552 247,28.5C 246.219,29.7287 245.719,31.062 245.5,32.5C 248.719,39.1568 250.719,46.1568 251.5,53.5C 251.813,57.0419 251.479,60.3752 250.5,63.5C 250.5,59.5 250.5,55.5 250.5,51.5C 245.532,50.3414 240.532,49.3414 235.5,48.5C 236.273,42.6172 238.44,37.2838 242,32.5C 244.501,20.8264 248.667,9.82636 254.5,-0.5 Z"/></g>
<g><path style="opacity:1" fill="#ebf6fd" d="M 283.5,-0.5 C 314.5,-0.5 345.5,-0.5 376.5,-0.5C 406.616,18.3247 416.783,44.9914 407,79.5C 395.576,105.145 375.743,118.812 347.5,120.5C 316.989,118.434 296.655,103.101 286.5,74.5C 286.68,73.4461 287.013,72.4461 287.5,71.5C 277.851,70.6679 268.184,70.1679 258.5,70C 255.325,70.0533 252.658,69.22 250.5,67.5C 250.5,66.1667 250.5,64.8333 250.5,63.5C 251.479,60.3752 251.813,57.0419 251.5,53.5C 262.802,54.41 274.136,54.7434 285.5,54.5C 286.039,46.7471 287.205,39.0804 289,31.5C 291.98,23.7086 294.814,15.8753 297.5,8C 297.527,5.35996 296.193,4.02662 293.5,4C 288.177,3.50065 282.844,3.33398 277.5,3.5C 279.042,2.83652 280.709,2.16985 282.5,1.5C 282.863,0.816537 283.196,0.14987 283.5,-0.5 Z"/></g>
<g><path style="opacity:1" fill="#e5f4fc" d="M 376.5,-0.5 C 382.5,-0.5 388.5,-0.5 394.5,-0.5C 421.608,25.5407 427.775,55.874 413,90.5C 393.934,122.093 366.1,134.593 329.5,128C 301.693,120.193 283.86,102.36 276,74.5C 272.636,73.2607 269.136,72.5941 265.5,72.5C 264.833,72.5 264.167,72.5 263.5,72.5C 259.124,72.0912 254.79,71.4245 250.5,70.5C 250.167,70.5 249.833,70.5 249.5,70.5C 249.263,69.209 249.596,68.209 250.5,67.5C 252.658,69.22 255.325,70.0533 258.5,70C 268.184,70.1679 277.851,70.6679 287.5,71.5C 287.013,72.4461 286.68,73.4461 286.5,74.5C 296.655,103.101 316.989,118.434 347.5,120.5C 375.743,118.812 395.576,105.145 407,79.5C 416.783,44.9914 406.616,18.3247 376.5,-0.5 Z"/></g>
<g><path style="opacity:1" fill="#ddf0fc" d="M 394.5,-0.5 C 397.5,-0.5 400.5,-0.5 403.5,-0.5C 429.692,28.6953 434.192,61.0286 417,96.5C 398.831,125.169 372.664,138.335 338.5,136C 309.503,131.657 288.336,116.49 275,90.5C 272.867,85.2678 271.034,79.9344 269.5,74.5C 268.051,73.8281 266.718,73.1614 265.5,72.5C 269.136,72.5941 272.636,73.2607 276,74.5C 283.86,102.36 301.693,120.193 329.5,128C 366.1,134.593 393.934,122.093 413,90.5C 427.775,55.874 421.608,25.5407 394.5,-0.5 Z"/></g>
<g><path style="opacity:1" fill="#d7eefb" d="M 403.5,-0.5 C 406.167,-0.5 408.833,-0.5 411.5,-0.5C 433.986,27.7637 438.486,58.7637 425,92.5C 402.417,133.368 368.251,148.535 322.5,138C 290.72,127.055 271.054,105.221 263.5,72.5C 264.167,72.5 264.833,72.5 265.5,72.5C 266.718,73.1614 268.051,73.8281 269.5,74.5C 271.034,79.9344 272.867,85.2678 275,90.5C 288.336,116.49 309.503,131.657 338.5,136C 372.664,138.335 398.831,125.169 417,96.5C 434.192,61.0286 429.692,28.6953 403.5,-0.5 Z"/></g>
<g><path style="opacity:1" fill="#ceeafa" d="M 411.5,-0.5 C 416.833,-0.5 422.167,-0.5 427.5,-0.5C 452.744,40.5144 451.244,80.5144 423,119.5C 410.977,133.694 396.143,143.694 378.5,149.5C 360.962,146.137 343.296,143.804 325.5,142.5C 316.25,141.528 306.917,141.195 297.5,141.5C 271.609,124.748 255.942,101.081 250.5,70.5C 254.79,71.4245 259.124,72.0912 263.5,72.5C 271.054,105.221 290.72,127.055 322.5,138C 368.251,148.535 402.417,133.368 425,92.5C 438.486,58.7637 433.986,27.7637 411.5,-0.5 Z"/></g>
<g><path style="opacity:1" fill="#c0e4f9" d="M 427.5,-0.5 C 431.833,-0.5 436.167,-0.5 440.5,-0.5C 461.557,37.0718 461.723,74.7384 441,112.5C 432.215,127.619 420.381,139.785 405.5,149C 402.439,151.035 399.105,152.201 395.5,152.5C 389.593,152.137 383.927,151.137 378.5,149.5C 396.143,143.694 410.977,133.694 423,119.5C 451.244,80.5144 452.744,40.5144 427.5,-0.5 Z"/></g>
<g><path style="opacity:1" fill="#b8e1f8" d="M 440.5,-0.5 C 442.5,-0.5 444.5,-0.5 446.5,-0.5C 464.766,34.0686 466.266,69.402 451,105.5C 441.225,125.438 427.059,141.438 408.5,153.5C 404.167,153.5 399.833,153.5 395.5,153.5C 395.5,153.167 395.5,152.833 395.5,152.5C 399.105,152.201 402.439,151.035 405.5,149C 420.381,139.785 432.215,127.619 441,112.5C 461.723,74.7384 461.557,37.0718 440.5,-0.5 Z"/></g>
<g><path style="opacity:1" fill="#b2dff8" d="M 446.5,-0.5 C 448.833,-0.5 451.167,-0.5 453.5,-0.5C 476.007,48.1063 470.84,93.4396 438,135.5C 431.904,142.102 425.404,148.102 418.5,153.5C 415.167,153.5 411.833,153.5 408.5,153.5C 427.059,141.438 441.225,125.438 451,105.5C 466.266,69.402 464.766,34.0686 446.5,-0.5 Z"/></g>
<g><path style="opacity:1" fill="#a9dcf6" d="M 453.5,-0.5 C 457.167,-0.5 460.833,-0.5 464.5,-0.5C 487.803,56.6412 478.47,107.641 436.5,152.5C 431.507,152.916 426.507,153.249 421.5,153.5C 420.5,153.5 419.5,153.5 418.5,153.5C 425.404,148.102 431.904,142.102 438,135.5C 470.84,93.4396 476.007,48.1063 453.5,-0.5 Z"/></g>
<g><path style="opacity:1" fill="#9ad6f5" d="M 464.5,-0.5 C 468.5,-0.5 472.5,-0.5 476.5,-0.5C 497.291,53.6409 489.958,103.308 454.5,148.5C 448.575,150.218 442.575,151.552 436.5,152.5C 478.47,107.641 487.803,56.6412 464.5,-0.5 Z"/></g>
<g><path style="opacity:1" fill="#8cd0f3" d="M 476.5,-0.5 C 479.5,-0.5 482.5,-0.5 485.5,-0.5C 503.785,49.6531 498.785,97.3197 470.5,142.5C 469.833,142.833 469.167,143.167 468.5,143.5C 464.013,144.992 459.68,146.658 455.5,148.5C 455.167,148.5 454.833,148.5 454.5,148.5C 489.958,103.308 497.291,53.6409 476.5,-0.5 Z"/></g>
<g><path style="opacity:1" fill="#81cbf1" d="M 485.5,-0.5 C 487.833,-0.5 490.167,-0.5 492.5,-0.5C 508.971,46.845 505.304,92.5116 481.5,136.5C 478.308,139.242 474.642,141.242 470.5,142.5C 498.785,97.3197 503.785,49.6531 485.5,-0.5 Z"/></g>
<g><path style="opacity:1" fill="#75c6ef" d="M 492.5,-0.5 C 494.833,-0.5 497.167,-0.5 499.5,-0.5C 514.497,43.614 512.497,86.9474 493.5,129.5C 491.833,130.833 490.167,132.167 488.5,133.5C 486.313,134.758 483.98,135.758 481.5,136.5C 505.304,92.5116 508.971,46.845 492.5,-0.5 Z"/></g>
<g><path style="opacity:1" fill="#68c0ed" d="M 499.5,-0.5 C 501.833,-0.5 504.167,-0.5 506.5,-0.5C 516.772,28.0971 519.272,57.4305 514,87.5C 511.45,99.0364 508.283,110.37 504.5,121.5C 501.01,124.411 497.344,127.078 493.5,129.5C 512.497,86.9474 514.497,43.614 499.5,-0.5 Z"/></g>
<g><path style="opacity:1" fill="#5cbceb" d="M 506.5,-0.5 C 508.5,-0.5 510.5,-0.5 512.5,-0.5C 521.63,26.9137 524.13,54.9137 520,83.5C 518.277,93.2837 516.11,102.95 513.5,112.5C 510.833,115.833 507.833,118.833 504.5,121.5C 508.283,110.37 511.45,99.0364 514,87.5C 519.272,57.4305 516.772,28.0971 506.5,-0.5 Z"/></g>
<g><path style="opacity:1" fill="#4eb7e9" d="M 512.5,-0.5 C 515.167,-0.5 517.833,-0.5 520.5,-0.5C 528.785,22.2822 531.951,45.9489 530,70.5C 529.225,81.1154 527.391,91.4488 524.5,101.5C 523.5,102.833 522.5,104.167 521.5,105.5C 518.788,107.885 516.122,110.218 513.5,112.5C 516.11,102.95 518.277,93.2837 520,83.5C 524.13,54.9137 521.63,26.9137 512.5,-0.5 Z"/></g>
<g><path style="opacity:1" fill="#33b1e6" d="M 520.5,-0.5 C 523.833,-0.5 527.167,-0.5 530.5,-0.5C 539.335,28.0206 541.335,57.0206 536.5,86.5C 536.167,87.1667 535.833,87.8333 535.5,88.5C 532.071,93.0189 528.404,97.3522 524.5,101.5C 527.391,91.4488 529.225,81.1154 530,70.5C 531.951,45.9489 528.785,22.2822 520.5,-0.5 Z"/></g>
<g><path style="opacity:1" fill="#00a3e1" d="M 540.5,-0.5 C 546.833,-0.5 553.167,-0.5 559.5,-0.5C 562.016,11.0778 564.016,22.7444 565.5,34.5C 564.596,35.209 564.263,36.209 564.5,37.5C 559.216,48.336 553.549,59.0027 547.5,69.5C 549.119,45.7832 546.786,22.4499 540.5,-0.5 Z"/></g>
<g><path style="opacity:1" fill="#0099dc" d="M 559.5,-0.5 C 563.833,-0.5 568.167,-0.5 572.5,-0.5C 573.393,1.90263 574.06,4.40263 574.5,7C 572.567,16.6318 569.567,25.7985 565.5,34.5C 564.016,22.7444 562.016,11.0778 559.5,-0.5 Z"/></g>
<g><path style="opacity:1" fill="#0091d9" d="M 572.5,-0.5 C 576.833,-0.5 581.167,-0.5 585.5,-0.5C 585.833,1.5 586.167,3.5 586.5,5.5C 599.693,76.8805 585.693,142.214 544.5,201.5C 529.454,217.854 511.787,230.854 491.5,240.5C 499.09,233.083 506.923,225.749 515,218.5C 518.167,214.667 521.333,210.833 524.5,207C 550.833,187.978 568.666,162.812 578,131.5C 578.825,121.325 578.658,111.325 577.5,101.5C 579.581,89.9315 580.914,78.2648 581.5,66.5C 582.79,56.23 582.29,45.8966 580,35.5C 576.369,39.2832 572.202,43.2832 567.5,47.5C 566.101,44.3012 565.101,40.9679 564.5,37.5C 564.263,36.209 564.596,35.209 565.5,34.5C 569.567,25.7985 572.567,16.6318 574.5,7C 574.06,4.40263 573.393,1.90263 572.5,-0.5 Z"/></g>
<g><path style="opacity:1" fill="#fefefe" d="M 277.5,3.5 C 282.844,3.33398 288.177,3.50065 293.5,4C 296.193,4.02662 297.527,5.35996 297.5,8C 294.814,15.8753 291.98,23.7086 289,31.5C 287.205,39.0804 286.039,46.7471 285.5,54.5C 274.136,54.7434 262.802,54.41 251.5,53.5C 250.719,46.1568 248.719,39.1568 245.5,32.5C 245.719,31.062 246.219,29.7287 247,28.5C 252.557,18.5552 260.057,10.3886 269.5,4C 272.146,3.50258 274.813,3.33591 277.5,3.5 Z"/></g>
<g><path style="opacity:1" fill="#fdfefe" d="M 336.5,8.5 C 334.85,14.25 334.184,20.25 334.5,26.5C 334.139,32.5933 334.639,38.5933 336,44.5C 345.52,37.3055 354.186,38.3055 362,47.5C 367.419,65.171 360.919,73.671 342.5,73C 341.915,71.6976 341.249,70.531 340.5,69.5C 339.909,66.0601 338.909,62.7268 337.5,59.5C 336.333,59.1667 335.167,58.8333 334,58.5C 322.526,60.1218 311.026,61.4551 299.5,62.5C 297.195,44.5194 300.695,27.8528 310,12.5C 316.809,4.8053 325.309,2.3053 335.5,5C 336.337,6.01127 336.67,7.17793 336.5,8.5 Z"/></g>
<g><path style="opacity:1" fill="#f0f8fe" d="M 336.5,8.5 C 356.169,6.23969 372.669,12.573 386,27.5C 399.769,49.7713 398.269,70.938 381.5,91C 358.833,109 336.167,109 313.5,91C 309.544,86.2586 306.21,81.0919 303.5,75.5C 309.486,74.4977 315.486,74.4977 321.5,75.5C 324.696,80.9563 329.363,84.7896 335.5,87C 351.635,92.0655 364.802,87.8988 375,74.5C 384.224,55.6986 380.391,40.1986 363.5,28C 354.016,23.9697 344.349,23.4697 334.5,26.5C 334.184,20.25 334.85,14.25 336.5,8.5 Z"/></g>
<g><path style="opacity:1" fill="#008cd5" d="M 586.5,5.5 C 598.748,40.0426 601.248,75.376 594,111.5C 586.036,146.447 569.536,176.447 544.5,201.5C 585.693,142.214 599.693,76.8805 586.5,5.5 Z"/></g>
<g><path style="opacity:1" fill="#f6fbfe" d="M 321.5,75.5 C 327.176,75.6661 332.843,75.4994 338.5,75C 340.192,73.5993 340.859,71.7659 340.5,69.5C 341.249,70.531 341.915,71.6976 342.5,73C 360.919,73.671 367.419,65.171 362,47.5C 354.186,38.3055 345.52,37.3055 336,44.5C 334.639,38.5933 334.139,32.5933 334.5,26.5C 344.349,23.4697 354.016,23.9697 363.5,28C 380.391,40.1986 384.224,55.6986 375,74.5C 364.802,87.8988 351.635,92.0655 335.5,87C 329.363,84.7896 324.696,80.9563 321.5,75.5 Z"/></g>
<g><path style="opacity:1" fill="#008cd5" d="M 581.5,66.5 C 579.066,67.7713 577.566,69.7713 577,72.5C 574.15,94.4138 570.15,116.08 565,137.5C 564.059,139.727 562.892,141.727 561.5,143.5C 560.759,137.529 560.425,131.529 560.5,125.5C 565.902,111.897 570.069,97.8969 573,83.5C 573.667,80.5 573.667,77.5 573,74.5C 566.663,80.0044 560.496,85.6711 554.5,91.5C 559.589,77.0505 563.923,62.3838 567.5,47.5C 572.202,43.2832 576.369,39.2832 580,35.5C 582.29,45.8966 582.79,56.23 581.5,66.5 Z"/></g>
<g><path style="opacity:1" fill="#15ace5" d="M 530.5,-0.5 C 533.833,-0.5 537.167,-0.5 540.5,-0.5C 546.786,22.4499 549.119,45.7832 547.5,69.5C 544.567,75.7141 540.9,81.3808 536.5,86.5C 541.335,57.0206 539.335,28.0206 530.5,-0.5 Z"/></g>
<g><path style="opacity:1" fill="#009edf" d="M 564.5,37.5 C 565.101,40.9679 566.101,44.3012 567.5,47.5C 563.923,62.3838 559.589,77.0505 554.5,91.5C 547.744,106.683 541.244,122.016 535,137.5C 531.565,145.384 527.398,152.717 522.5,159.5C 521.054,156.999 520.554,154.333 521,151.5C 527.932,142.909 533.599,133.575 538,123.5C 538.396,111.705 537.562,100.039 535.5,88.5C 535.833,87.8333 536.167,87.1667 536.5,86.5C 540.9,81.3808 544.567,75.7141 547.5,69.5C 553.549,59.0027 559.216,48.336 564.5,37.5 Z"/></g>
<g><path style="opacity:1" fill="#c2e5f9" d="M 249.5,70.5 C 249.833,70.5 250.167,70.5 250.5,70.5C 255.942,101.081 271.609,124.748 297.5,141.5C 296.833,141.5 296.5,141.833 296.5,142.5C 293.171,142.215 290.171,142.882 287.5,144.5C 285.833,144.5 284.167,144.5 282.5,144.5C 267.091,132.061 255.258,116.727 247,98.5C 245.228,94.687 244.395,90.687 244.5,86.5C 244.517,84.4352 244.85,82.4352 245.5,80.5C 246.167,78.1667 246.833,75.8333 247.5,73.5C 248.401,72.7095 249.068,71.7095 249.5,70.5 Z"/></g>
<g><path style="opacity:1" fill="#00a6e2" d="M 535.5,88.5 C 537.562,100.039 538.396,111.705 538,123.5C 533.599,133.575 527.932,142.909 521,151.5C 520.554,154.333 521.054,156.999 522.5,159.5C 521.189,162.135 519.522,164.469 517.5,166.5C 516.914,164.16 515.914,161.993 514.5,160C 517.42,158.031 518.42,155.531 517.5,152.5C 520.955,137.023 522.288,121.357 521.5,105.5C 522.5,104.167 523.5,102.833 524.5,101.5C 528.404,97.3522 532.071,93.0189 535.5,88.5 Z"/></g>
<g><path style="opacity:1" fill="#7fcef3" d="M 245.5,80.5 C 244.85,82.4352 244.517,84.4352 244.5,86.5C 243.698,87.9516 243.198,89.6183 243,91.5C 242.501,97.4908 242.334,103.491 242.5,109.5C 241.518,106.038 241.185,102.371 241.5,98.5C 237.55,97.8876 233.717,96.8876 230,95.5C 229.503,97.8098 229.337,100.143 229.5,102.5C 228.184,94.295 228.184,85.9616 229.5,77.5C 234.886,77.5051 240.219,78.5051 245.5,80.5 Z"/></g>
<g><path style="opacity:1" fill="#b4dff8" d="M 244.5,86.5 C 244.395,90.687 245.228,94.687 247,98.5C 255.258,116.727 267.091,132.061 282.5,144.5C 279.605,145.799 276.938,147.465 274.5,149.5C 273.833,149.5 273.167,149.5 272.5,149.5C 260.734,140.269 251.067,129.269 243.5,116.5C 242.781,114.236 242.448,111.903 242.5,109.5C 242.334,103.491 242.501,97.4908 243,91.5C 243.198,89.6183 243.698,87.9516 244.5,86.5 Z"/></g>
<g><path style="opacity:1" fill="#5bc4f1" d="M 242.5,109.5 C 242.448,111.903 242.781,114.236 243.5,116.5C 243.5,117.167 243.5,117.833 243.5,118.5C 239.908,116.261 235.908,114.927 231.5,114.5C 230.833,112.167 230.167,109.833 229.5,107.5C 229.5,105.833 229.5,104.167 229.5,102.5C 229.337,100.143 229.503,97.8098 230,95.5C 233.717,96.8876 237.55,97.8876 241.5,98.5C 241.185,102.371 241.518,106.038 242.5,109.5 Z"/></g>
<g><path style="opacity:1" fill="#2dbcef" d="M 231.5,114.5 C 235.908,114.927 239.908,116.261 243.5,118.5C 244.677,124.874 246.01,131.207 247.5,137.5C 244.997,136.916 242.497,136.249 240,135.5C 239.235,135.57 238.735,135.903 238.5,136.5C 235.259,129.561 232.925,122.227 231.5,114.5 Z"/></g>
<g><path style="opacity:1" fill="#1aade5" d="M 521.5,105.5 C 522.288,121.357 520.955,137.023 517.5,152.5C 518.42,155.531 517.42,158.031 514.5,160C 515.914,161.993 516.914,164.16 517.5,166.5C 514.253,172.083 510.253,177.083 505.5,181.5C 504.51,178.849 503.51,176.183 502.5,173.5C 498.974,176.094 495.308,178.427 491.5,180.5C 490.402,179.399 490.235,178.066 491,176.5C 498.797,158.98 503.297,140.647 504.5,121.5C 507.833,118.833 510.833,115.833 513.5,112.5C 516.122,110.218 518.788,107.885 521.5,105.5 Z"/></g>
<g><path style="opacity:1" fill="#3cb2e7" d="M 504.5,121.5 C 503.297,140.647 498.797,158.98 491,176.5C 490.235,178.066 490.402,179.399 491.5,180.5C 490.833,181.167 490.167,181.833 489.5,182.5C 484.068,184.715 478.735,187.215 473.5,190C 470.568,191.145 467.568,191.978 464.5,192.5C 464.062,192.565 463.728,192.399 463.5,192C 476.071,174.353 484.404,154.853 488.5,133.5C 490.167,132.167 491.833,130.833 493.5,129.5C 497.344,127.078 501.01,124.411 504.5,121.5 Z"/></g>
<g><path style="opacity:1" fill="#a5daf6" d="M 243.5,116.5 C 251.067,129.269 260.734,140.269 272.5,149.5C 266.261,154.312 262.928,160.645 262.5,168.5C 256.665,158.499 251.665,148.166 247.5,137.5C 246.01,131.207 244.677,124.874 243.5,118.5C 243.5,117.833 243.5,117.167 243.5,116.5 Z"/></g>
<g><path style="opacity:1" fill="#0283cb" d="M 581.5,66.5 C 580.914,78.2648 579.581,89.9315 577.5,101.5C 568.982,146.63 546.315,182.63 509.5,209.5C 477.985,228.962 443.652,237.629 406.5,235.5C 405.167,235.5 403.833,235.5 402.5,235.5C 402.389,234.883 402.056,234.383 401.5,234C 406.726,229.266 412.059,224.766 417.5,220.5C 429.029,227.925 439.529,226.592 449,216.5C 451.455,211.954 453.288,207.288 454.5,202.5C 454.665,205.85 454.498,209.183 454,212.5C 451.971,215.029 450.138,217.696 448.5,220.5C 460.764,222.372 471.431,219.039 480.5,210.5C 487.582,204.754 493.582,198.087 498.5,190.5C 500.392,187.26 502.726,184.26 505.5,181.5C 510.253,177.083 514.253,172.083 517.5,166.5C 519.522,164.469 521.189,162.135 522.5,159.5C 527.398,152.717 531.565,145.384 535,137.5C 541.244,122.016 547.744,106.683 554.5,91.5C 560.496,85.6711 566.663,80.0044 573,74.5C 573.667,77.5 573.667,80.5 573,83.5C 570.069,97.8969 565.902,111.897 560.5,125.5C 558.347,124.427 556.347,124.427 554.5,125.5C 545.464,129.748 543.131,136.415 547.5,145.5C 540.305,156.527 530.971,165.36 519.5,172C 509.356,180.806 501.523,191.306 496,203.5C 487.608,211.285 478.108,217.452 467.5,222C 498.767,213.61 524.601,196.776 545,171.5C 551.268,162.633 556.768,153.3 561.5,143.5C 562.892,141.727 564.059,139.727 565,137.5C 570.15,116.08 574.15,94.4138 577,72.5C 577.566,69.7713 579.066,67.7713 581.5,66.5 Z"/></g>
<g><path style="opacity:1" fill="#009edf" d="M 554.5,125.5 C 555.496,125.414 556.329,125.748 557,126.5C 557.667,133.167 557.667,139.833 557,146.5C 553.583,149.092 550.416,148.759 547.5,145.5C 543.131,136.415 545.464,129.748 554.5,125.5 Z"/></g>
<g><path style="opacity:1" fill="#4cb6e9" d="M 488.5,133.5 C 484.404,154.853 476.071,174.353 463.5,192C 463.728,192.399 464.062,192.565 464.5,192.5C 461.386,193.956 458.052,195.122 454.5,196C 453.663,197.011 453.33,198.178 453.5,199.5C 452.659,197.188 451.659,194.855 450.5,192.5C 453.982,188.76 454.315,184.76 451.5,180.5C 459.584,169.328 465.251,156.995 468.5,143.5C 469.167,143.167 469.833,142.833 470.5,142.5C 474.642,141.242 478.308,139.242 481.5,136.5C 483.98,135.758 486.313,134.758 488.5,133.5 Z"/></g>
<g><path style="opacity:1" fill="#81cbf1" d="M 296.5,142.5 C 296.5,141.833 296.833,141.5 297.5,141.5C 306.917,141.195 316.25,141.528 325.5,142.5C 334.641,156.248 347.641,163.581 364.5,164.5C 375.947,163.797 386.281,160.13 395.5,153.5C 399.833,153.5 404.167,153.5 408.5,153.5C 411.833,153.5 415.167,153.5 418.5,153.5C 419.5,153.5 420.5,153.5 421.5,153.5C 420.391,154.29 419.058,154.79 417.5,155C 396.879,179.536 371.213,186.869 340.5,177C 324.753,170.086 313.086,158.919 305.5,143.5C 302.572,142.516 299.572,142.183 296.5,142.5 Z"/></g>
<g><path style="opacity:1" fill="#75c5ef" d="M 296.5,142.5 C 299.572,142.183 302.572,142.516 305.5,143.5C 313.086,158.919 324.753,170.086 340.5,177C 371.213,186.869 396.879,179.536 417.5,155C 419.058,154.79 420.391,154.29 421.5,153.5C 426.507,153.249 431.507,152.916 436.5,152.5C 425.182,174.967 407.182,189.133 382.5,195C 339.001,201.588 308.001,185.088 289.5,145.5C 289.043,144.702 288.376,144.369 287.5,144.5C 290.171,142.882 293.171,142.215 296.5,142.5 Z"/></g>
<g><path style="opacity:1" fill="#8dd0f3" d="M 325.5,142.5 C 343.296,143.804 360.962,146.137 378.5,149.5C 383.927,151.137 389.593,152.137 395.5,152.5C 395.5,152.833 395.5,153.167 395.5,153.5C 386.281,160.13 375.947,163.797 364.5,164.5C 347.641,163.581 334.641,156.248 325.5,142.5 Z"/></g>
<g><path style="opacity:1" fill="#6ac1ed" d="M 282.5,144.5 C 284.167,144.5 285.833,144.5 287.5,144.5C 288.376,144.369 289.043,144.702 289.5,145.5C 308.001,185.088 339.001,201.588 382.5,195C 407.182,189.133 425.182,174.967 436.5,152.5C 442.575,151.552 448.575,150.218 454.5,148.5C 454.833,148.5 455.167,148.5 455.5,148.5C 451.107,160.965 444.441,171.965 435.5,181.5C 424.271,180.197 416.104,184.53 411,194.5C 410.294,199.407 409.127,204.074 407.5,208.5C 407.672,209.492 407.338,210.158 406.5,210.5C 407.037,203.255 403.704,200.422 396.5,202C 394.077,203.571 392.744,205.737 392.5,208.5C 385.5,208.5 378.5,208.5 371.5,208.5C 369.372,206.627 367.039,204.961 364.5,203.5C 362.792,203.703 361.459,204.536 360.5,206C 346.941,206.305 333.608,204.805 320.5,201.5C 298.51,190.17 283.177,172.836 274.5,149.5C 276.938,147.465 279.605,145.799 282.5,144.5 Z"/></g>
<g><path style="opacity:1" fill="#5ebceb" d="M 468.5,143.5 C 465.251,156.995 459.584,169.328 451.5,180.5C 446.966,177.63 442.966,178.297 439.5,182.5C 437.901,182.768 436.568,182.434 435.5,181.5C 444.441,171.965 451.107,160.965 455.5,148.5C 459.68,146.658 464.013,144.992 468.5,143.5 Z"/></g>
<g><path style="opacity:0.935" fill="#0056a7" d="M 191.5,147.5 C 201.146,191.498 215.979,233.832 236,274.5C 254.173,305.509 271.84,336.843 289,368.5C 306.524,401.214 319.858,435.547 329,471.5C 338.677,520.099 331.677,566.099 308,609.5C 274.069,663.377 225.236,686.543 161.5,679C 104.521,666.684 64.3548,633.851 41,580.5C 28.807,549.674 26.1404,518.007 33,485.5C 41.2442,452.351 54.9109,421.684 74,393.5C 92.7266,365.77 111.06,337.77 129,309.5C 157.02,258.272 177.854,204.272 191.5,147.5 Z"/></g>
<g><path style="opacity:1" fill="#08adeb" d="M 247.5,137.5 C 251.665,148.166 256.665,158.499 262.5,168.5C 267.276,176.45 272.276,184.283 277.5,192C 277.272,192.399 276.938,192.565 276.5,192.5C 271.833,187.833 267.167,183.167 262.5,178.5C 255.609,169.738 249.442,160.405 244,150.5C 241.87,145.913 240.037,141.247 238.5,136.5C 238.735,135.903 239.235,135.57 240,135.5C 242.497,136.249 244.997,136.916 247.5,137.5 Z"/></g>
<g><path style="opacity:1" fill="#57baea" d="M 272.5,149.5 C 273.167,149.5 273.833,149.5 274.5,149.5C 283.177,172.836 298.51,190.17 320.5,201.5C 312.978,200.028 305.478,198.362 298,196.5C 297.167,196.667 296.333,196.833 295.5,197C 310.055,207.278 325.722,215.444 342.5,221.5C 349.267,224.281 356.267,226.615 363.5,228.5C 347.363,229.841 331.863,226.841 317,219.5C 315.278,219.611 315.112,220.111 316.5,221C 323.336,224.39 330.336,227.39 337.5,230C 326.515,230.311 315.848,228.811 305.5,225.5C 296.919,219.921 288.919,213.588 281.5,206.5C 281.56,205.957 281.893,205.624 282.5,205.5C 287.034,207.735 291.7,209.235 296.5,210C 289.344,204.674 282.677,198.841 276.5,192.5C 276.938,192.565 277.272,192.399 277.5,192C 272.276,184.283 267.276,176.45 262.5,168.5C 262.928,160.645 266.261,154.312 272.5,149.5 Z"/></g>
<g><path style="opacity:1" fill="#8acdf2" d="M 229.5,107.5 C 230.167,109.833 230.833,112.167 231.5,114.5C 232.925,122.227 235.259,129.561 238.5,136.5C 240.037,141.247 241.87,145.913 244,150.5C 249.442,160.405 255.609,169.738 262.5,178.5C 260.355,177.011 258.022,176.011 255.5,175.5C 241.812,155.445 232.479,133.445 227.5,109.5C 228.833,109.5 229.5,108.833 229.5,107.5 Z"/></g>
<g><path style="opacity:1" fill="#007ac4" d="M 530.5,241.5 C 524.656,240.399 518.656,240.399 512.5,241.5C 542.939,217.233 567.773,188.233 587,154.5C 575.232,188.098 556.399,217.098 530.5,241.5 Z"/></g>
<g><path style="opacity:1" fill="#0098e1" d="M 554.5,125.5 C 556.347,124.427 558.347,124.427 560.5,125.5C 560.425,131.529 560.759,137.529 561.5,143.5C 556.768,153.3 551.268,162.633 545,171.5C 524.601,196.776 498.767,213.61 467.5,222C 478.108,217.452 487.608,211.285 496,203.5C 501.523,191.306 509.356,180.806 519.5,172C 530.971,165.36 540.305,156.527 547.5,145.5C 550.416,148.759 553.583,149.092 557,146.5C 557.667,139.833 557.667,133.167 557,126.5C 556.329,125.748 555.496,125.414 554.5,125.5 Z"/></g>
<g><path style="opacity:1" fill="#9cd8f5" d="M 451.5,180.5 C 454.315,184.76 453.982,188.76 450.5,192.5C 448.565,193.15 446.565,193.483 444.5,193.5C 443.713,191.896 442.38,191.229 440.5,191.5C 439.701,188.57 439.368,185.57 439.5,182.5C 442.966,178.297 446.966,177.63 451.5,180.5 Z"/></g>
<g><path style="opacity:1" fill="#00a0e8" d="M 435.5,181.5 C 436.568,182.434 437.901,182.768 439.5,182.5C 439.368,185.57 439.701,188.57 440.5,191.5C 437.876,193.198 437.876,195.031 440.5,197C 442.841,197.168 444.174,196.001 444.5,193.5C 446.565,193.483 448.565,193.15 450.5,192.5C 451.659,194.855 452.659,197.188 453.5,199.5C 453.833,200.167 454.167,200.833 454.5,201.5C 454.5,201.833 454.5,202.167 454.5,202.5C 453.288,207.288 451.455,211.954 449,216.5C 439.529,226.592 429.029,227.925 417.5,220.5C 414.416,217.336 412.082,213.67 410.5,209.5C 409.675,208.614 408.675,208.281 407.5,208.5C 409.127,204.074 410.294,199.407 411,194.5C 416.104,184.53 424.271,180.197 435.5,181.5 Z"/></g>
<g><path style="opacity:1" fill="#66c7f2" d="M 505.5,181.5 C 502.726,184.26 500.392,187.26 498.5,190.5C 498.631,189.761 498.464,189.094 498,188.5C 496.887,189.305 495.721,189.972 494.5,190.5C 493.201,187.605 491.535,184.938 489.5,182.5C 490.167,181.833 490.833,181.167 491.5,180.5C 495.308,178.427 498.974,176.094 502.5,173.5C 503.51,176.183 504.51,178.849 505.5,181.5 Z"/></g>
<g><path style="opacity:1" fill="#9ad6f5" d="M 489.5,182.5 C 491.535,184.938 493.201,187.605 494.5,190.5C 491.96,193.607 488.627,195.44 484.5,196C 476.039,196.999 467.705,197.833 459.5,198.5C 457.326,198.75 455.659,199.75 454.5,201.5C 454.167,200.833 453.833,200.167 453.5,199.5C 453.33,198.178 453.663,197.011 454.5,196C 458.052,195.122 461.386,193.956 464.5,192.5C 467.568,191.978 470.568,191.145 473.5,190C 478.735,187.215 484.068,184.715 489.5,182.5 Z"/></g>
<g><path style="opacity:1" fill="#009ee6" d="M 196.5,206.5 C 195.418,208.823 195.585,211.157 197,213.5C 207.086,236.755 217.753,259.755 229,282.5C 230.725,283.464 232.559,284.131 234.5,284.5C 237.833,290.5 241.167,296.5 244.5,302.5C 241.901,302.451 239.734,301.451 238,299.5C 242.009,309.182 246.842,318.516 252.5,327.5C 255.487,333.473 258.487,339.473 261.5,345.5C 261.631,346.239 261.464,346.906 261,347.5C 254.335,342.332 247.835,336.999 241.5,331.5C 241.107,329.716 240.441,328.05 239.5,326.5C 235.957,316.41 232.124,306.41 228,296.5C 224.411,294.47 220.578,293.137 216.5,292.5C 216.737,291.209 216.404,290.209 215.5,289.5C 214.899,286.032 213.899,282.699 212.5,279.5C 215.003,280.084 217.503,280.751 220,281.5C 220.5,281.167 221,280.833 221.5,280.5C 215.5,265.833 209.5,251.167 203.5,236.5C 202.032,234.667 200.365,234.334 198.5,235.5C 201.241,242.723 203.575,250.057 205.5,257.5C 201.89,256.297 198.223,255.297 194.5,254.5C 194.5,247.5 194.5,240.5 194.5,233.5C 192.167,233.5 189.833,233.5 187.5,233.5C 188.021,230.364 187.021,228.03 184.5,226.5C 185.327,222.193 185.993,217.86 186.5,213.5C 185.167,213.5 183.833,213.5 182.5,213.5C 182.5,212.5 182.5,211.5 182.5,210.5C 185.044,202.034 187.877,193.701 191,185.5C 192.681,192.557 194.514,199.557 196.5,206.5 Z"/></g>
<g><path style="opacity:1" fill="#edf7fd" d="M 440.5,191.5 C 442.38,191.229 443.713,191.896 444.5,193.5C 444.174,196.001 442.841,197.168 440.5,197C 437.876,195.031 437.876,193.198 440.5,191.5 Z"/></g>
<g><path style="opacity:1" fill="#75c4ee" d="M 255.5,175.5 C 258.022,176.011 260.355,177.011 262.5,178.5C 267.167,183.167 271.833,187.833 276.5,192.5C 282.677,198.841 289.344,204.674 296.5,210C 291.7,209.235 287.034,207.735 282.5,205.5C 281.893,205.624 281.56,205.957 281.5,206.5C 271.358,197.362 262.691,187.029 255.5,175.5 Z"/></g>
<g><path style="opacity:1" fill="#bae2f8" d="M 498.5,190.5 C 493.582,198.087 487.582,204.754 480.5,210.5C 478.817,206.306 476.484,202.473 473.5,199C 468.845,198.501 464.179,198.334 459.5,198.5C 467.705,197.833 476.039,196.999 484.5,196C 488.627,195.44 491.96,193.607 494.5,190.5C 495.721,189.972 496.887,189.305 498,188.5C 498.464,189.094 498.631,189.761 498.5,190.5 Z"/></g>
<g><path style="opacity:1" fill="#d7edfb" d="M 459.5,198.5 C 464.179,198.334 468.845,198.501 473.5,199C 476.484,202.473 478.817,206.306 480.5,210.5C 471.431,219.039 460.764,222.372 448.5,220.5C 450.138,217.696 451.971,215.029 454,212.5C 454.498,209.183 454.665,205.85 454.5,202.5C 454.5,202.167 454.5,201.833 454.5,201.5C 455.659,199.75 457.326,198.75 459.5,198.5 Z"/></g>
<g><path style="opacity:1" fill="#9dd8f5" d="M 406.5,210.5 C 404.367,215.453 400.7,216.786 395.5,214.5C 393.962,212.757 392.962,210.757 392.5,208.5C 392.744,205.737 394.077,203.571 396.5,202C 403.704,200.422 407.037,203.255 406.5,210.5 Z"/></g>
<g><path style="opacity:1" fill="#0099e1" d="M 320.5,201.5 C 333.608,204.805 346.941,206.305 360.5,206C 361.459,204.536 362.792,203.703 364.5,203.5C 367.039,204.961 369.372,206.627 371.5,208.5C 369.18,209.724 366.847,211.058 364.5,212.5C 361.686,212.019 360.352,210.352 360.5,207.5C 358.801,207.34 357.134,207.506 355.5,208C 350.887,212.443 346.553,216.943 342.5,221.5C 325.722,215.444 310.055,207.278 295.5,197C 296.333,196.833 297.167,196.667 298,196.5C 305.478,198.362 312.978,200.028 320.5,201.5 Z"/></g>
<g><path style="opacity:1" fill="#009add" d="M 577.5,101.5 C 578.658,111.325 578.825,121.325 578,131.5C 568.666,162.812 550.833,187.978 524.5,207C 521.333,210.833 518.167,214.667 515,218.5C 506.923,225.749 499.09,233.083 491.5,240.5C 466.265,252.708 439.598,258.708 411.5,258.5C 420.107,255.124 428.773,251.624 437.5,248C 443.392,245.563 448.726,242.396 453.5,238.5C 470.952,234.683 487.619,228.683 503.5,220.5C 505.833,217.167 508.167,213.833 510.5,210.5C 510.376,209.893 510.043,209.56 509.5,209.5C 546.315,182.63 568.982,146.63 577.5,101.5 Z"/></g>
<g><path style="opacity:1" fill="#008ed6" d="M 371.5,208.5 C 378.5,208.5 385.5,208.5 392.5,208.5C 392.962,210.757 393.962,212.757 395.5,214.5C 400.7,216.786 404.367,215.453 406.5,210.5C 407.338,210.158 407.672,209.492 407.5,208.5C 408.675,208.281 409.675,208.614 410.5,209.5C 412.082,213.67 414.416,217.336 417.5,220.5C 412.059,224.766 406.726,229.266 401.5,234C 402.056,234.383 402.389,234.883 402.5,235.5C 389.27,234.32 376.27,231.987 363.5,228.5C 356.267,226.615 349.267,224.281 342.5,221.5C 346.553,216.943 350.887,212.443 355.5,208C 357.134,207.506 358.801,207.34 360.5,207.5C 360.352,210.352 361.686,212.019 364.5,212.5C 366.847,211.058 369.18,209.724 371.5,208.5 Z"/></g>
<g><path style="opacity:1" fill="#4bb6e9" d="M 363.5,228.5 C 376.27,231.987 389.27,234.32 402.5,235.5C 403.833,235.5 405.167,235.5 406.5,235.5C 407.609,236.29 408.942,236.79 410.5,237C 398.316,242.011 385.816,242.844 373,239.5C 369.857,239.575 366.857,240.241 364,241.5C 353.772,241.414 343.605,241.414 333.5,241.5C 323.389,237.358 314.056,232.025 305.5,225.5C 315.848,228.811 326.515,230.311 337.5,230C 330.336,227.39 323.336,224.39 316.5,221C 315.112,220.111 315.278,219.611 317,219.5C 331.863,226.841 347.363,229.841 363.5,228.5 Z"/></g>
<g><path style="opacity:1" fill="#0091db" d="M 182.5,210.5 C 182.5,211.5 182.5,212.5 182.5,213.5C 183.833,213.5 185.167,213.5 186.5,213.5C 185.993,217.86 185.327,222.193 184.5,226.5C 181.684,235.427 179.017,244.427 176.5,253.5C 174.345,259.787 172.345,266.12 170.5,272.5C 170.167,272.5 169.833,272.5 169.5,272.5C 165.167,272.5 160.833,272.5 156.5,272.5C 165.758,251.995 174.425,231.329 182.5,210.5 Z"/></g>
<g><path style="opacity:1" fill="#00a4e1" d="M 453.5,238.5 C 448.726,242.396 443.392,245.563 437.5,248C 428.773,251.624 420.107,255.124 411.5,258.5C 399.879,259.08 388.546,258.08 377.5,255.5C 391.811,252.921 405.811,249.088 419.5,244C 430.912,242.584 442.245,240.751 453.5,238.5 Z"/></g>
<g><path style="opacity:1" fill="#00a8ea" d="M 184.5,226.5 C 187.021,228.03 188.021,230.364 187.5,233.5C 186.803,241.731 185.47,249.731 183.5,257.5C 183.586,256.504 183.252,255.671 182.5,255C 180.496,253.438 178.496,252.938 176.5,253.5C 179.017,244.427 181.684,235.427 184.5,226.5 Z"/></g>
<g><path style="opacity:1" fill="#1babe4" d="M 509.5,209.5 C 510.043,209.56 510.376,209.893 510.5,210.5C 508.167,213.833 505.833,217.167 503.5,220.5C 487.619,228.683 470.952,234.683 453.5,238.5C 442.245,240.751 430.912,242.584 419.5,244C 405.811,249.088 391.811,252.921 377.5,255.5C 361.915,253.415 347.248,248.748 333.5,241.5C 343.605,241.414 353.772,241.414 364,241.5C 366.857,240.241 369.857,239.575 373,239.5C 385.816,242.844 398.316,242.011 410.5,237C 408.942,236.79 407.609,236.29 406.5,235.5C 443.652,237.629 477.985,228.962 509.5,209.5 Z"/></g>
<g><path style="opacity:1" fill="#0090d9" d="M 187.5,233.5 C 189.833,233.5 192.167,233.5 194.5,233.5C 194.5,240.5 194.5,247.5 194.5,254.5C 193.947,259.482 193.613,264.482 193.5,269.5C 192.962,271.117 192.629,272.784 192.5,274.5C 188.802,274.448 185.135,274.114 181.5,273.5C 181.777,268.114 182.444,262.781 183.5,257.5C 185.47,249.731 186.803,241.731 187.5,233.5 Z"/></g>
<g><path style="opacity:1" fill="#0090d9" d="M 212.5,279.5 C 212.567,278.041 212.234,276.708 211.5,275.5C 210.068,269.204 208.068,263.204 205.5,257.5C 203.575,250.057 201.241,242.723 198.5,235.5C 200.365,234.334 202.032,234.667 203.5,236.5C 209.5,251.167 215.5,265.833 221.5,280.5C 221,280.833 220.5,281.167 220,281.5C 217.503,280.751 215.003,280.084 212.5,279.5 Z"/></g>
<g><path style="opacity:1" fill="#00a5e9" d="M 194.5,254.5 C 198.223,255.297 201.89,256.297 205.5,257.5C 208.068,263.204 210.068,269.204 211.5,275.5C 205.5,273.5 199.5,271.5 193.5,269.5C 193.613,264.482 193.947,259.482 194.5,254.5 Z"/></g>
<g><path style="opacity:1" fill="#008fd8" d="M 196.5,206.5 C 207.532,233.232 220.199,259.232 234.5,284.5C 232.559,284.131 230.725,283.464 229,282.5C 217.753,259.755 207.086,236.755 197,213.5C 195.585,211.157 195.418,208.823 196.5,206.5 Z"/></g>
<g><path style="opacity:1" fill="#0084cd" d="M 364.5,267.5 C 355.944,267.22 347.61,267.886 339.5,269.5C 321.945,261.882 306.611,251.049 293.5,237C 314.728,252.477 338.394,262.644 364.5,267.5 Z"/></g>
<g><path style="opacity:1" fill="#00b4ed" d="M 183.5,257.5 C 182.444,262.781 181.777,268.114 181.5,273.5C 180.833,274.5 180.167,275.5 179.5,276.5C 176.912,274.375 173.912,273.042 170.5,272.5C 172.345,266.12 174.345,259.787 176.5,253.5C 178.496,252.938 180.496,253.438 182.5,255C 183.252,255.671 183.586,256.504 183.5,257.5 Z"/></g>
<g><path style="opacity:1" fill="#008fd8" d="M 530.5,241.5 C 516.841,254.001 501.507,264.001 484.5,271.5C 479.684,270.35 474.684,270.184 469.5,271C 436.17,273.378 402.836,275.711 369.5,278C 368.944,278.383 368.611,278.883 368.5,279.5C 358.332,277.334 348.666,274.001 339.5,269.5C 347.61,267.886 355.944,267.22 364.5,267.5C 392.372,272.829 420.372,273.663 448.5,270C 472,265.078 493.333,255.578 512.5,241.5C 518.656,240.399 524.656,240.399 530.5,241.5 Z"/></g>
<g><path style="opacity:1" fill="#00abeb" d="M 193.5,269.5 C 199.5,271.5 205.5,273.5 211.5,275.5C 212.234,276.708 212.567,278.041 212.5,279.5C 213.899,282.699 214.899,286.032 215.5,289.5C 208.195,287.176 200.861,284.843 193.5,282.5C 192.817,282.863 192.15,283.196 191.5,283.5C 191.963,280.518 192.296,277.518 192.5,274.5C 192.629,272.784 192.962,271.117 193.5,269.5 Z"/></g>
<g><path style="opacity:1" fill="#0099dc" d="M 181.5,273.5 C 185.135,274.114 188.802,274.448 192.5,274.5C 192.296,277.518 191.963,280.518 191.5,283.5C 191.5,284.167 191.5,284.833 191.5,285.5C 187.143,285.414 182.81,285.08 178.5,284.5C 178.833,281.833 179.167,279.167 179.5,276.5C 180.167,275.5 180.833,274.5 181.5,273.5 Z"/></g>
<g><path style="opacity:1" fill="#0097df" d="M 484.5,271.5 C 446.654,285.709 407.987,288.375 368.5,279.5C 368.611,278.883 368.944,278.383 369.5,278C 402.836,275.711 436.17,273.378 469.5,271C 474.684,270.184 479.684,270.35 484.5,271.5 Z"/></g>
<g><path style="opacity:1" fill="#39beef" d="M 169.5,272.5 C 169.833,272.5 170.167,272.5 170.5,272.5C 173.912,273.042 176.912,274.375 179.5,276.5C 179.167,279.167 178.833,281.833 178.5,284.5C 177.833,285.833 177.167,287.167 176.5,288.5C 173.366,285.769 169.699,284.436 165.5,284.5C 167.035,280.562 168.368,276.562 169.5,272.5 Z"/></g>
<g><path style="opacity:1" fill="#009cde" d="M 156.5,272.5 C 160.833,272.5 165.167,272.5 169.5,272.5C 168.368,276.562 167.035,280.562 165.5,284.5C 164.227,286.713 163.227,289.046 162.5,291.5C 157.5,291.5 152.5,291.5 147.5,291.5C 149.937,284.832 152.937,278.498 156.5,272.5 Z"/></g>
<g><path style="opacity:1" fill="#02a6e2" d="M 147.5,291.5 C 152.5,291.5 157.5,291.5 162.5,291.5C 162.167,292.167 161.833,292.833 161.5,293.5C 160.167,296.5 158.833,299.5 157.5,302.5C 152.549,303.228 147.549,303.728 142.5,304C 146.185,304.914 145.852,305.581 141.5,306C 142.167,306.333 142.833,306.667 143.5,307C 141.866,307.494 140.199,307.66 138.5,307.5C 141.009,301.808 144.009,296.474 147.5,291.5 Z"/></g>
<g><path style="opacity:1" fill="#00a3e1" d="M 178.5,284.5 C 182.81,285.08 187.143,285.414 191.5,285.5C 190.508,290.452 189.842,295.452 189.5,300.5C 184.493,300.249 179.493,299.916 174.5,299.5C 175.326,295.864 175.992,292.197 176.5,288.5C 177.167,287.167 177.833,285.833 178.5,284.5 Z"/></g>
<g><path style="opacity:1" fill="#5ec5f1" d="M 165.5,284.5 C 169.699,284.436 173.366,285.769 176.5,288.5C 175.992,292.197 175.326,295.864 174.5,299.5C 174.167,299.5 173.833,299.5 173.5,299.5C 169.565,297.533 165.565,295.533 161.5,293.5C 161.833,292.833 162.167,292.167 162.5,291.5C 163.227,289.046 164.227,286.713 165.5,284.5 Z"/></g>
<g><path style="opacity:1" fill="#0eb3eb" d="M 215.5,289.5 C 216.404,290.209 216.737,291.209 216.5,292.5C 218.75,299.409 220.75,306.409 222.5,313.5C 211.757,309.397 200.757,306.063 189.5,303.5C 188.96,306.865 188.294,310.198 187.5,313.5C 184.446,313.112 181.279,313.112 178,313.5C 176.189,312.922 174.355,312.422 172.5,312C 171.748,311.329 171.414,310.496 171.5,309.5C 172.374,306.211 173.041,302.877 173.5,299.5C 173.833,299.5 174.167,299.5 174.5,299.5C 179.493,299.916 184.493,300.249 189.5,300.5C 189.842,295.452 190.508,290.452 191.5,285.5C 191.5,284.833 191.5,284.167 191.5,283.5C 192.15,283.196 192.817,282.863 193.5,282.5C 200.861,284.843 208.195,287.176 215.5,289.5 Z"/></g>
<g><path style="opacity:1" fill="#7ccdf3" d="M 161.5,293.5 C 165.565,295.533 169.565,297.533 173.5,299.5C 173.041,302.877 172.374,306.211 171.5,309.5C 170.323,311.679 169.323,314.013 168.5,316.5C 163.652,314.107 158.652,312.107 153.5,310.5C 154.833,307.833 156.167,305.167 157.5,302.5C 158.833,299.5 160.167,296.5 161.5,293.5 Z"/></g>
<g><path style="opacity:1" fill="#37bdef" d="M 222.5,313.5 C 222.629,315.216 222.962,316.883 223.5,318.5C 224.167,320.833 224.833,323.167 225.5,325.5C 213.646,321.326 201.646,317.326 189.5,313.5C 188.351,315.925 187.684,315.925 187.5,313.5C 188.294,310.198 188.96,306.865 189.5,303.5C 200.757,306.063 211.757,309.397 222.5,313.5 Z"/></g>
<g><path style="opacity:1" fill="#00a1e0" d="M 244.5,302.5 C 249.833,311.833 255.167,321.167 260.5,330.5C 258.059,329.443 255.725,328.11 253.5,326.5C 252.893,326.624 252.56,326.957 252.5,327.5C 246.842,318.516 242.009,309.182 238,299.5C 239.734,301.451 241.901,302.451 244.5,302.5 Z"/></g>
<g><path style="opacity:1" fill="#0ba8e3" d="M 216.5,292.5 C 220.578,293.137 224.411,294.47 228,296.5C 232.124,306.41 235.957,316.41 239.5,326.5C 234.167,323.833 228.833,321.167 223.5,318.5C 222.962,316.883 222.629,315.216 222.5,313.5C 220.75,306.409 218.75,299.409 216.5,292.5 Z"/></g>
<g><path style="opacity:1" fill="#4cb6e9" d="M 157.5,302.5 C 156.167,305.167 154.833,307.833 153.5,310.5C 151.405,315.027 149.072,319.361 146.5,323.5C 140.058,323.546 133.724,324.88 127.5,327.5C 131.154,320.86 134.821,314.194 138.5,307.5C 140.199,307.66 141.866,307.494 143.5,307C 142.833,306.667 142.167,306.333 141.5,306C 145.852,305.581 146.185,304.914 142.5,304C 147.549,303.728 152.549,303.228 157.5,302.5 Z"/></g>
<g><path style="opacity:1" fill="#a3daf6" d="M 153.5,310.5 C 158.652,312.107 163.652,314.107 168.5,316.5C 167.297,320.11 166.297,323.777 165.5,327.5C 163.733,329.792 162.733,332.458 162.5,335.5C 162.167,335.5 161.833,335.5 161.5,335.5C 161.586,334.504 161.252,333.671 160.5,333C 155.479,330.821 150.479,328.654 145.5,326.5C 145.557,325.391 145.89,324.391 146.5,323.5C 149.072,319.361 151.405,315.027 153.5,310.5 Z"/></g>
<g><path style="opacity:1" fill="#5fc1ef" d="M 171.5,309.5 C 171.414,310.496 171.748,311.329 172.5,312C 174.355,312.422 176.189,312.922 178,313.5C 181.279,313.112 184.446,313.112 187.5,313.5C 187.684,315.925 188.351,315.925 189.5,313.5C 201.646,317.326 213.646,321.326 225.5,325.5C 226.167,329.5 226.833,333.5 227.5,337.5C 234.63,340.291 241.297,343.957 247.5,348.5C 249.029,352.421 250.363,356.421 251.5,360.5C 244.669,355.855 237.669,351.355 230.5,347C 229.364,344.223 227.864,341.723 226,339.5C 213.192,335.397 200.358,331.397 187.5,327.5C 186.719,328.737 185.719,329.737 184.5,330.5C 178.065,329.317 171.732,328.317 165.5,327.5C 166.297,323.777 167.297,320.11 168.5,316.5C 169.323,314.013 170.323,311.679 171.5,309.5 Z"/></g>
<g><path style="opacity:1" fill="#00a5e9" d="M 241.5,331.5 C 247.835,336.999 254.335,342.332 261,347.5C 261.464,346.906 261.631,346.239 261.5,345.5C 262.921,348.009 264.588,350.343 266.5,352.5C 272.534,364.186 278.534,375.853 284.5,387.5C 284.103,388.525 283.437,388.692 282.5,388C 272.294,378.957 261.961,370.123 251.5,361.5C 251.5,361.167 251.5,360.833 251.5,360.5C 250.363,356.421 249.029,352.421 247.5,348.5C 245.5,342.833 243.5,337.167 241.5,331.5 Z"/></g>
<g><path style="opacity:1" fill="#6dc1ed" d="M 146.5,323.5 C 145.89,324.391 145.557,325.391 145.5,326.5C 143.515,329.798 141.515,333.131 139.5,336.5C 132.22,337.07 125.22,338.737 118.5,341.5C 121.004,336.485 124.004,331.819 127.5,327.5C 133.724,324.88 140.058,323.546 146.5,323.5 Z"/></g>
<g><path style="opacity:1" fill="#49b6e9" d="M 223.5,318.5 C 228.833,321.167 234.167,323.833 239.5,326.5C 240.441,328.05 241.107,329.716 241.5,331.5C 243.5,337.167 245.5,342.833 247.5,348.5C 241.297,343.957 234.63,340.291 227.5,337.5C 226.833,333.5 226.167,329.5 225.5,325.5C 224.833,323.167 224.167,320.833 223.5,318.5 Z"/></g>
<g><path style="opacity:1" fill="#bde4f9" d="M 145.5,326.5 C 150.479,328.654 155.479,330.821 160.5,333C 161.252,333.671 161.586,334.504 161.5,335.5C 160.302,338.426 159.302,341.426 158.5,344.5C 157.313,346.072 156.313,347.739 155.5,349.5C 151.461,345.965 146.794,343.131 141.5,341C 140.207,340.51 138.873,340.343 137.5,340.5C 138.167,339.167 138.833,337.833 139.5,336.5C 141.515,333.131 143.515,329.798 145.5,326.5 Z"/></g>
<g><path style="opacity:1" fill="#87cff3" d="M 256.5,376.5 C 257.752,380.422 258.752,384.422 259.5,388.5C 261.346,394.729 262.679,401.062 263.5,407.5C 254.751,393.709 243.918,381.709 231,371.5C 229.805,367.249 229.305,362.915 229.5,358.5C 214.842,354.669 200.342,350.336 186,345.5C 185.085,346.328 184.419,347.328 184,348.5C 176.774,347.044 169.441,346.044 162,345.5C 160.893,345.585 159.893,345.919 159,346.5C 158.536,345.906 158.369,345.239 158.5,344.5C 159.302,341.426 160.302,338.426 161.5,335.5C 161.833,335.5 162.167,335.5 162.5,335.5C 170.019,336.566 177.686,337.566 185.5,338.5C 185.5,336.833 185.5,335.167 185.5,333.5C 199.42,337.106 213.254,341.106 227,345.5C 227.945,345.905 228.612,346.572 229,347.5C 229.206,350.623 229.873,353.623 231,356.5C 239.681,363.024 248.181,369.69 256.5,376.5 Z"/></g>
<g><path style="opacity:1" fill="#27ace4" d="M 260.5,330.5 C 269.087,345.339 277.42,360.339 285.5,375.5C 282.937,374.408 280.77,372.742 279,370.5C 277.387,362.125 273.22,356.125 266.5,352.5C 264.588,350.343 262.921,348.009 261.5,345.5C 258.487,339.473 255.487,333.473 252.5,327.5C 252.56,326.957 252.893,326.624 253.5,326.5C 255.725,328.11 258.059,329.443 260.5,330.5 Z"/></g>
<g><path style="opacity:1" fill="#d1ecfb" d="M 137.5,340.5 C 138.873,340.343 140.207,340.51 141.5,341C 146.794,343.131 151.461,345.965 155.5,349.5C 155.167,350.833 154.833,352.167 154.5,353.5C 152.659,355.849 151.326,358.515 150.5,361.5C 150.167,361.5 149.833,361.5 149.5,361.5C 143.635,357.422 137.302,354.089 130.5,351.5C 132.597,347.628 134.931,343.961 137.5,340.5 Z"/></g>
<g><path style="opacity:1" fill="#97d5f5" d="M 158.5,344.5 C 158.369,345.239 158.536,345.906 159,346.5C 159.893,345.919 160.893,345.585 162,345.5C 169.441,346.044 176.774,347.044 184,348.5C 184.419,347.328 185.085,346.328 186,345.5C 200.342,350.336 214.842,354.669 229.5,358.5C 229.305,362.915 229.805,367.249 231,371.5C 243.918,381.709 254.751,393.709 263.5,407.5C 264.404,408.209 264.737,409.209 264.5,410.5C 265.969,415.716 266.635,421.05 266.5,426.5C 258.727,406.981 246.56,390.647 230,377.5C 229.818,374.774 229.318,372.107 228.5,369.5C 215.142,365.436 201.808,361.27 188.5,357C 176.97,354.681 165.637,353.514 154.5,353.5C 154.833,352.167 155.167,350.833 155.5,349.5C 156.313,347.739 157.313,346.072 158.5,344.5 Z"/></g>
<g><path style="opacity:1" fill="#72c6f0" d="M 165.5,327.5 C 171.732,328.317 178.065,329.317 184.5,330.5C 185.719,329.737 186.719,328.737 187.5,327.5C 200.358,331.397 213.192,335.397 226,339.5C 227.864,341.723 229.364,344.223 230.5,347C 237.669,351.355 244.669,355.855 251.5,360.5C 251.5,360.833 251.5,361.167 251.5,361.5C 253.364,366.426 255.031,371.426 256.5,376.5C 248.181,369.69 239.681,363.024 231,356.5C 229.873,353.623 229.206,350.623 229,347.5C 228.612,346.572 227.945,345.905 227,345.5C 213.254,341.106 199.42,337.106 185.5,333.5C 185.5,335.167 185.5,336.833 185.5,338.5C 177.686,337.566 170.019,336.566 162.5,335.5C 162.733,332.458 163.733,329.792 165.5,327.5 Z"/></g>
<g><path style="opacity:1" fill="#8acff3" d="M 139.5,336.5 C 138.833,337.833 138.167,339.167 137.5,340.5C 134.931,343.961 132.597,347.628 130.5,351.5C 129.833,352.167 129.167,352.833 128.5,353.5C 119.322,356.093 110.655,359.759 102.5,364.5C 107.599,356.621 112.933,348.955 118.5,341.5C 125.22,338.737 132.22,337.07 139.5,336.5 Z"/></g>
<g><path style="opacity:1" fill="#e3f3fc" d="M 130.5,351.5 C 137.302,354.089 143.635,357.422 149.5,361.5C 148.833,363.167 148.167,364.833 147.5,366.5C 146.599,367.29 145.932,368.29 145.5,369.5C 144.407,371.349 143.074,373.016 141.5,374.5C 135.211,370.612 128.544,367.279 121.5,364.5C 124.083,361.003 126.416,357.336 128.5,353.5C 129.167,352.833 129.833,352.167 130.5,351.5 Z"/></g>
<g><path style="opacity:1" fill="#a3d9f6" d="M 154.5,353.5 C 165.637,353.514 176.97,354.681 188.5,357C 201.808,361.27 215.142,365.436 228.5,369.5C 229.318,372.107 229.818,374.774 230,377.5C 246.56,390.647 258.727,406.981 266.5,426.5C 267.167,426.5 267.5,426.833 267.5,427.5C 267.5,431.833 267.5,436.167 267.5,440.5C 268.252,448.82 269.919,456.82 272.5,464.5C 272.5,465.833 272.5,467.167 272.5,468.5C 268.855,516.825 244.855,550.492 200.5,569.5C 197.873,570.092 195.206,570.425 192.5,570.5C 185.167,570.5 177.833,570.5 170.5,570.5C 167.5,569.833 164.5,569.167 161.5,568.5C 214.882,565.278 248.715,537.945 263,486.5C 269.983,446.781 258.65,413.447 229,386.5C 228.764,384.236 228.264,382.069 227.5,380C 213.561,375.465 199.561,371.131 185.5,367C 184.417,364.944 182.75,363.611 180.5,363C 170.541,361.744 160.541,361.244 150.5,361.5C 151.326,358.515 152.659,355.849 154.5,353.5 Z"/></g>
<g><path style="opacity:1" fill="#abdcf7" d="M 149.5,361.5 C 149.833,361.5 150.167,361.5 150.5,361.5C 160.541,361.244 170.541,361.744 180.5,363C 182.75,363.611 184.417,364.944 185.5,367C 199.561,371.131 213.561,375.465 227.5,380C 228.264,382.069 228.764,384.236 229,386.5C 258.65,413.447 269.983,446.781 263,486.5C 248.715,537.945 214.882,565.278 161.5,568.5C 146.012,565.003 130.345,562.669 114.5,561.5C 114.167,561.5 113.833,561.5 113.5,561.5C 86.4805,546.808 68.1472,524.808 58.5,495.5C 54.6079,493.86 50.6079,492.527 46.5,491.5C 45.5713,490.311 45.238,488.978 45.5,487.5C 45.9846,481.062 47.6513,475.062 50.5,469.5C 50.62,470.586 51.2867,471.253 52.5,471.5C 55.4788,472.328 58.4788,472.995 61.5,473.5C 61.8754,479.792 61.2087,485.959 59.5,492C 61.7039,494.062 64.3705,495.228 67.5,495.5C 83.9798,538.435 115.313,561.435 161.5,564.5C 209.264,561.563 241.097,537.563 257,492.5C 266.747,453.142 257.081,419.475 228,391.5C 227.749,389.567 227.249,387.734 226.5,386C 213.454,382.155 200.454,378.155 187.5,374C 185.659,372.134 183.992,370.134 182.5,368C 170.896,365.639 159.23,365.139 147.5,366.5C 148.167,364.833 148.833,363.167 149.5,361.5 Z"/></g>
<g><path style="opacity:1" fill="#01abeb" d="M 251.5,361.5 C 261.961,370.123 272.294,378.957 282.5,388C 283.437,388.692 284.103,388.525 284.5,387.5C 289.573,396.992 293.573,406.992 296.5,417.5C 296.631,418.239 296.464,418.906 296,419.5C 284.081,408.803 271.914,398.47 259.5,388.5C 258.752,384.422 257.752,380.422 256.5,376.5C 255.031,371.426 253.364,366.426 251.5,361.5 Z"/></g>
<g><path style="opacity:1" fill="#b2dff8" d="M 67.5,495.5 C 69.1172,496.038 70.7839,496.371 72.5,496.5C 88.6565,536.425 118.323,557.425 161.5,559.5C 209.713,556.444 240.547,531.778 254,485.5C 260.345,450.539 251.012,420.539 226,395.5C 225.508,394.451 225.674,393.451 226.5,392.5C 213.351,387.88 200.018,383.88 186.5,380.5C 186.747,377.495 185.747,374.995 183.5,373C 171.916,370.471 160.249,369.971 148.5,371.5C 146.97,371.36 145.97,370.693 145.5,369.5C 145.932,368.29 146.599,367.29 147.5,366.5C 159.23,365.139 170.896,365.639 182.5,368C 183.992,370.134 185.659,372.134 187.5,374C 200.454,378.155 213.454,382.155 226.5,386C 227.249,387.734 227.749,389.567 228,391.5C 257.081,419.475 266.747,453.142 257,492.5C 241.097,537.563 209.264,561.563 161.5,564.5C 115.313,561.435 83.9798,538.435 67.5,495.5 Z"/></g>
<g><path style="opacity:1" fill="#f2f9fd" d="M 121.5,364.5 C 128.544,367.279 135.211,370.612 141.5,374.5C 140.167,377.167 138.833,379.833 137.5,382.5C 135.367,384.091 133.701,386.091 132.5,388.5C 131.167,389.167 130.167,390.167 129.5,391.5C 117.722,394.312 108.055,400.312 100.5,409.5C 95.9677,409.818 91.6344,409.485 87.5,408.5C 96.8827,397.119 105.883,385.452 114.5,373.5C 117.185,370.81 119.518,367.81 121.5,364.5 Z"/></g>
<g><path style="opacity:1" fill="#a1d8f5" d="M 128.5,353.5 C 126.416,357.336 124.083,361.003 121.5,364.5C 119.518,367.81 117.185,370.81 114.5,373.5C 91.2573,385.246 74.7573,403.246 65,427.5C 61.655,437.423 59.155,447.423 57.5,457.5C 56.6715,456.668 55.8382,457.001 55,458.5C 53.7258,461.391 52.2258,464.058 50.5,466.5C 50.6527,460.155 50.986,453.822 51.5,447.5C 56.3434,434.813 62.5101,422.813 70,411.5C 80.3624,395.419 91.1958,379.752 102.5,364.5C 110.655,359.759 119.322,356.093 128.5,353.5 Z"/></g>
<g><path style="opacity:1" fill="#4bb6e8" d="M 285.5,375.5 C 295.215,394.595 303.549,414.262 310.5,434.5C 311.986,446.118 312.986,457.785 313.5,469.5C 312.033,466.479 310.367,463.479 308.5,460.5C 305.228,468.046 302.228,475.713 299.5,483.5C 298.5,484.833 297.5,486.167 296.5,487.5C 296.993,485.194 297.326,482.861 297.5,480.5C 299.354,476.947 301.021,473.28 302.5,469.5C 303.343,465.127 304.343,460.793 305.5,456.5C 305.811,451.234 305.145,446.234 303.5,441.5C 302.079,433.136 299.746,425.136 296.5,417.5C 293.573,406.992 289.573,396.992 284.5,387.5C 278.534,375.853 272.534,364.186 266.5,352.5C 273.22,356.125 277.387,362.125 279,370.5C 280.77,372.742 282.937,374.408 285.5,375.5 Z"/></g>
<g><path style="opacity:1" fill="#aeddf7" d="M 114.5,373.5 C 105.883,385.452 96.8827,397.119 87.5,408.5C 86.5041,408.414 85.6708,408.748 85,409.5C 77.0758,420.681 71.9091,433.015 69.5,446.5C 67.5,449.833 65.5,453.167 63.5,456.5C 61.9458,457.914 60.6125,459.581 59.5,461.5C 58.6376,460.234 57.9709,458.901 57.5,457.5C 59.155,447.423 61.655,437.423 65,427.5C 74.7573,403.246 91.2573,385.246 114.5,373.5 Z"/></g>
<g><path style="opacity:1" fill="#b9e2f8" d="M 145.5,369.5 C 145.97,370.693 146.97,371.36 148.5,371.5C 160.249,369.971 171.916,370.471 183.5,373C 185.747,374.995 186.747,377.495 186.5,380.5C 200.018,383.88 213.351,387.88 226.5,392.5C 225.674,393.451 225.508,394.451 226,395.5C 251.012,420.539 260.345,450.539 254,485.5C 240.547,531.778 209.713,556.444 161.5,559.5C 118.323,557.425 88.6565,536.425 72.5,496.5C 73.5,496.5 74.5,496.5 75.5,496.5C 76.209,497.404 77.209,497.737 78.5,497.5C 87.0404,520.211 102.374,536.711 124.5,547C 166.174,562.789 202.008,554.289 232,521.5C 252.707,493.582 257.04,463.249 245,430.5C 241.675,422.507 237.341,415.174 232,408.5C 228.265,405.269 225.098,401.603 222.5,397.5C 212.536,394.234 202.536,391.068 192.5,388C 190.208,386.71 188.208,385.043 186.5,383C 170.206,378.535 153.873,378.368 137.5,382.5C 138.833,379.833 140.167,377.167 141.5,374.5C 143.074,373.016 144.407,371.349 145.5,369.5 Z"/></g>
<g><path style="opacity:1" fill="#c0e5f9" d="M 78.5,497.5 C 81.5184,497.335 84.5184,497.502 87.5,498C 107.105,535.136 137.772,550.469 179.5,544C 214.635,534.24 235.468,511.407 242,475.5C 244.941,448.319 236.774,425.152 217.5,406C 212.724,405.654 208.058,404.821 203.5,403.5C 197.68,400.048 193.347,395.214 190.5,389C 171.222,381.53 152.055,381.696 133,389.5C 132.601,389.272 132.435,388.938 132.5,388.5C 133.701,386.091 135.367,384.091 137.5,382.5C 153.873,378.368 170.206,378.535 186.5,383C 188.208,385.043 190.208,386.71 192.5,388C 202.536,391.068 212.536,394.234 222.5,397.5C 225.098,401.603 228.265,405.269 232,408.5C 237.341,415.174 241.675,422.507 245,430.5C 257.04,463.249 252.707,493.582 232,521.5C 202.008,554.289 166.174,562.789 124.5,547C 102.374,536.711 87.0404,520.211 78.5,497.5 Z"/></g>
<g><path style="opacity:1" fill="#d1ebfa" d="M 203.5,403.5 C 219.74,412.943 230.24,426.943 235,445.5C 241.725,476.658 233.225,502.825 209.5,524C 181.778,543.686 152.778,545.686 122.5,530C 114.086,524.921 106.919,518.421 101,510.5C 97.141,504.103 93.3076,497.77 89.5,491.5C 89.448,489.097 89.7814,486.764 90.5,484.5C 90.2786,481.721 90.612,479.054 91.5,476.5C 101.955,516.575 127.955,536.075 169.5,535C 208.334,527.828 229.334,504.495 232.5,465C 230.225,430.735 212.892,408.069 180.5,397C 171.335,395.547 162.335,394.047 153.5,392.5C 150.15,392.335 146.817,392.502 143.5,393C 138.269,398.062 133.269,403.229 128.5,408.5C 119.634,413.361 112.301,420.027 106.5,428.5C 105.675,429.386 104.675,429.719 103.5,429.5C 100.167,429.5 96.8333,429.5 93.5,429.5C 97.4767,424.243 101.477,418.91 105.5,413.5C 109.514,413.666 113.514,413.499 117.5,413C 123.699,407.136 129.532,400.969 135,394.5C 135.617,393.551 135.451,392.718 134.5,392C 132.866,391.506 131.199,391.34 129.5,391.5C 130.167,390.167 131.167,389.167 132.5,388.5C 132.435,388.938 132.601,389.272 133,389.5C 152.055,381.696 171.222,381.53 190.5,389C 193.347,395.214 197.68,400.048 203.5,403.5 Z"/></g>
<g><path style="opacity:1" fill="#02b1ec" d="M 259.5,388.5 C 271.914,398.47 284.081,408.803 296,419.5C 296.464,418.906 296.631,418.239 296.5,417.5C 299.746,425.136 302.079,433.136 303.5,441.5C 290.682,430.926 277.682,420.593 264.5,410.5C 264.737,409.209 264.404,408.209 263.5,407.5C 262.679,401.062 261.346,394.729 259.5,388.5 Z"/></g>
<g><path style="opacity:1" fill="#fefefe" d="M 129.5,391.5 C 131.199,391.34 132.866,391.506 134.5,392C 135.451,392.718 135.617,393.551 135,394.5C 129.532,400.969 123.699,407.136 117.5,413C 113.514,413.499 109.514,413.666 105.5,413.5C 103.801,413.66 102.134,413.494 100.5,413C 99.3157,411.855 99.3157,410.688 100.5,409.5C 108.055,400.312 117.722,394.312 129.5,391.5 Z"/></g>
<g><path style="opacity:1" fill="#fdfefe" d="M 153.5,392.5 C 153.396,394.703 152.73,396.703 151.5,398.5C 149.992,400.181 148.992,402.181 148.5,404.5C 146.408,407.088 145.075,410.088 144.5,413.5C 143.609,414.261 142.942,415.261 142.5,416.5C 137.833,417.651 133.166,417.651 128.5,416.5C 127.5,416.5 126.5,416.5 125.5,416.5C 125.957,413.594 126.957,410.928 128.5,408.5C 133.269,403.229 138.269,398.062 143.5,393C 146.817,392.502 150.15,392.335 153.5,392.5 Z"/></g>
<g><path style="opacity:1" fill="#d7eefb" d="M 153.5,392.5 C 162.335,394.047 171.335,395.547 180.5,397C 212.892,408.069 230.225,430.735 232.5,465C 229.334,504.495 208.334,527.828 169.5,535C 127.955,536.075 101.955,516.575 91.5,476.5C 92.181,472.073 93.181,467.74 94.5,463.5C 95.4283,470.994 97.095,478.327 99.5,485.5C 99.5,488.5 99.5,491.5 99.5,494.5C 100.035,496.446 101.368,497.446 103.5,497.5C 124.948,528.702 153.614,537.869 189.5,525C 222.977,505.855 234.144,477.688 223,440.5C 213.45,418.626 196.95,405.126 173.5,400C 166.026,398.56 158.693,398.06 151.5,398.5C 152.73,396.703 153.396,394.703 153.5,392.5 Z"/></g>
<g><path style="opacity:1" fill="#ddf0fc" d="M 151.5,398.5 C 158.693,398.06 166.026,398.56 173.5,400C 196.95,405.126 213.45,418.626 223,440.5C 234.144,477.688 222.977,505.855 189.5,525C 153.614,537.869 124.948,528.702 103.5,497.5C 106.127,498.092 108.794,498.425 111.5,498.5C 126.011,519.19 146.011,528.023 171.5,525C 209.297,514.919 225.797,490.419 221,451.5C 213.865,426.032 197.365,410.532 171.5,405C 163.616,404.627 155.95,404.46 148.5,404.5C 148.992,402.181 149.992,400.181 151.5,398.5 Z"/></g>
<g><path style="opacity:1" fill="#cbe9fa" d="M 203.5,403.5 C 208.058,404.821 212.724,405.654 217.5,406C 236.774,425.152 244.941,448.319 242,475.5C 235.468,511.407 214.635,534.24 179.5,544C 137.772,550.469 107.105,535.136 87.5,498C 84.5184,497.502 81.5184,497.335 78.5,497.5C 77.209,497.737 76.209,497.404 75.5,496.5C 79.8333,496.5 84.1667,496.5 88.5,496.5C 88.6287,494.784 88.962,493.117 89.5,491.5C 93.3076,497.77 97.141,504.103 101,510.5C 106.919,518.421 114.086,524.921 122.5,530C 152.778,545.686 181.778,543.686 209.5,524C 233.225,502.825 241.725,476.658 235,445.5C 230.24,426.943 219.74,412.943 203.5,403.5 Z"/></g>
<g><path style="opacity:1" fill="#e4f4fc" d="M 148.5,404.5 C 155.95,404.46 163.616,404.627 171.5,405C 197.365,410.532 213.865,426.032 221,451.5C 225.797,490.419 209.297,514.919 171.5,525C 146.011,528.023 126.011,519.19 111.5,498.5C 115.273,498.263 118.94,498.763 122.5,500C 139.961,517.524 160.294,521.857 183.5,513C 207.566,500.368 217.399,480.535 213,453.5C 208.54,434.373 197.04,421.54 178.5,415C 167.222,411.51 156.056,411.676 145,415.5C 144.536,414.906 144.369,414.239 144.5,413.5C 145.075,410.088 146.408,407.088 148.5,404.5 Z"/></g>
<g><path style="opacity:1" fill="#c0e4f9" d="M 87.5,408.5 C 91.6344,409.485 95.9677,409.818 100.5,409.5C 99.3157,410.688 99.3157,411.855 100.5,413C 102.134,413.494 103.801,413.66 105.5,413.5C 101.477,418.91 97.4767,424.243 93.5,429.5C 90.3508,429.211 87.3508,429.711 84.5,431C 78.9271,435.677 73.9271,440.843 69.5,446.5C 71.9091,433.015 77.0758,420.681 85,409.5C 85.6708,408.748 86.5041,408.414 87.5,408.5 Z"/></g>
<g><path style="opacity:1" fill="#eaf6fd" d="M 111.5,498.5 C 108.794,498.425 106.127,498.092 103.5,497.5C 101.368,497.446 100.035,496.446 99.5,494.5C 109.84,495.078 120.174,495.745 130.5,496.5C 130.338,494.473 130.505,492.473 131,490.5C 147.458,506.57 165.625,508.737 185.5,497C 200.819,483.749 204.985,467.583 198,448.5C 187.352,429.266 171.186,422.099 149.5,427C 145.328,428.588 141.328,430.421 137.5,432.5C 126.538,428.042 118.371,431.375 113,442.5C 109.507,449.807 106.34,457.14 103.5,464.5C 103.952,444.259 112.285,428.259 128.5,416.5C 133.166,417.651 137.833,417.651 142.5,416.5C 142.942,415.261 143.609,414.261 144.5,413.5C 144.369,414.239 144.536,414.906 145,415.5C 156.056,411.676 167.222,411.51 178.5,415C 197.04,421.54 208.54,434.373 213,453.5C 217.399,480.535 207.566,500.368 183.5,513C 160.294,521.857 139.961,517.524 122.5,500C 118.94,498.763 115.273,498.263 111.5,498.5 Z"/></g>
<g><path style="opacity:1" fill="#01b7ee" d="M 264.5,410.5 C 277.682,420.593 290.682,430.926 303.5,441.5C 305.145,446.234 305.811,451.234 305.5,456.5C 304.211,457.501 302.878,457.334 301.5,456C 290.586,445.913 279.253,436.413 267.5,427.5C 267.5,426.833 267.167,426.5 266.5,426.5C 266.635,421.05 265.969,415.716 264.5,410.5 Z"/></g>
<g><path style="opacity:1" fill="#e0f1fc" d="M 128.5,408.5 C 126.957,410.928 125.957,413.594 125.5,416.5C 126.5,416.5 127.5,416.5 128.5,416.5C 112.285,428.259 103.952,444.259 103.5,464.5C 102.022,470.748 101.022,477.082 100.5,483.5C 99.6618,483.842 99.3284,484.508 99.5,485.5C 97.095,478.327 95.4283,470.994 94.5,463.5C 97.8312,453.834 101.998,444.501 107,435.5C 108.076,432.094 106.91,430.094 103.5,429.5C 104.675,429.719 105.675,429.386 106.5,428.5C 112.301,420.027 119.634,413.361 128.5,408.5 Z"/></g>
<g><path style="opacity:1" fill="#f0f8fe" d="M 99.5,494.5 C 99.5,491.5 99.5,488.5 99.5,485.5C 99.3284,484.508 99.6618,483.842 100.5,483.5C 100.611,484.117 100.944,484.617 101.5,485C 110.819,485.832 120.152,486.332 129.5,486.5C 129.371,467.952 132.038,449.952 137.5,432.5C 141.328,430.421 145.328,428.588 149.5,427C 171.186,422.099 187.352,429.266 198,448.5C 204.985,467.583 200.819,483.749 185.5,497C 165.625,508.737 147.458,506.57 131,490.5C 130.505,492.473 130.338,494.473 130.5,496.5C 120.174,495.745 109.84,495.078 99.5,494.5 Z"/></g>
<g><path style="opacity:1" fill="#fcfdfe" d="M 93.5,429.5 C 96.8333,429.5 100.167,429.5 103.5,429.5C 106.91,430.094 108.076,432.094 107,435.5C 101.998,444.501 97.8312,453.834 94.5,463.5C 93.181,467.74 92.181,472.073 91.5,476.5C 90.612,479.054 90.2786,481.721 90.5,484.5C 81.5006,483.067 72.5006,481.567 63.5,480C 62.565,477.619 62.2317,475.119 62.5,472.5C 63.791,472.737 64.791,472.404 65.5,471.5C 66.9349,470.015 66.7683,468.682 65,467.5C 64.0642,463.886 63.5642,460.22 63.5,456.5C 65.5,453.167 67.5,449.833 69.5,446.5C 73.9271,440.843 78.9271,435.677 84.5,431C 87.3508,429.711 90.3508,429.211 93.5,429.5 Z"/></g>
<g><path style="opacity:1" fill="#fefefe" d="M 137.5,432.5 C 132.038,449.952 129.371,467.952 129.5,486.5C 120.152,486.332 110.819,485.832 101.5,485C 100.944,484.617 100.611,484.117 100.5,483.5C 101.022,477.082 102.022,470.748 103.5,464.5C 106.34,457.14 109.507,449.807 113,442.5C 118.371,431.375 126.538,428.042 137.5,432.5 Z"/></g>
<g><path style="opacity:1" fill="#f7fbfe" d="M 160.5,437.5 C 180.794,439.729 189.961,451.063 188,471.5C 182.253,487.238 171.086,493.738 154.5,491C 140.28,485.778 133.78,475.612 135,460.5C 138.335,446.994 146.835,439.327 160.5,437.5 Z"/></g>
<g><path style="opacity:1" fill="#2abcef" d="M 267.5,427.5 C 279.253,436.413 290.586,445.913 301.5,456C 302.878,457.334 304.211,457.501 305.5,456.5C 304.343,460.793 303.343,465.127 302.5,469.5C 290.231,460.536 278.565,450.87 267.5,440.5C 267.5,436.167 267.5,431.833 267.5,427.5 Z"/></g>
<g><path style="opacity:1" fill="#53c2f1" d="M 267.5,440.5 C 278.565,450.87 290.231,460.536 302.5,469.5C 301.021,473.28 299.354,476.947 297.5,480.5C 296.399,481.8 295.066,482.3 293.5,482C 286.335,476.332 279.335,470.499 272.5,464.5C 269.919,456.82 268.252,448.82 267.5,440.5 Z"/></g>
<g><path style="opacity:1" fill="#2fade4" d="M 310.5,434.5 C 315.707,447.32 319.374,460.653 321.5,474.5C 321.636,477.551 321.302,480.551 320.5,483.5C 321.167,484.5 321.833,485.5 322.5,486.5C 321.667,490.832 320.834,495.165 320,499.5C 319.617,498.944 319.117,498.611 318.5,498.5C 317.882,488.649 316.216,478.982 313.5,469.5C 312.986,457.785 311.986,446.118 310.5,434.5 Z"/></g>
<g><path style="opacity:1" fill="#d0ebfa" d="M 57.5,457.5 C 57.9709,458.901 58.6376,460.234 59.5,461.5C 60.6125,459.581 61.9458,457.914 63.5,456.5C 63.5642,460.22 64.0642,463.886 65,467.5C 66.7683,468.682 66.9349,470.015 65.5,471.5C 63.5168,471.157 62.1834,471.824 61.5,473.5C 58.4788,472.995 55.4788,472.328 52.5,471.5C 51.2867,471.253 50.62,470.586 50.5,469.5C 50.5,468.5 50.5,467.5 50.5,466.5C 52.2258,464.058 53.7258,461.391 55,458.5C 55.8382,457.001 56.6715,456.668 57.5,457.5 Z"/></g>
<g><path style="opacity:1" fill="#0093d9" d="M 313.5,469.5 C 316.216,478.982 317.882,488.649 318.5,498.5C 319.123,515.95 316.79,532.95 311.5,549.5C 310.833,543.5 310.167,537.5 309.5,531.5C 310.886,524.565 311.886,517.565 312.5,510.5C 313.166,506.012 313.499,501.346 313.5,496.5C 313.594,490.754 313.094,485.087 312,479.5C 309.521,482.069 306.854,484.402 304,486.5C 303.155,488.611 302.322,490.611 301.5,492.5C 301.932,489.123 301.265,486.123 299.5,483.5C 302.228,475.713 305.228,468.046 308.5,460.5C 310.367,463.479 312.033,466.479 313.5,469.5 Z"/></g>
<g><path style="opacity:1" fill="#98d5f5" d="M 272.5,468.5 C 274.351,472.039 276.018,475.706 277.5,479.5C 271.873,513.45 255.54,540.783 228.5,561.5C 227.29,561.932 226.29,562.599 225.5,563.5C 217.732,566.387 209.732,568.387 201.5,569.5C 201.167,569.5 200.833,569.5 200.5,569.5C 244.855,550.492 268.855,516.825 272.5,468.5 Z"/></g>
<g><path style="opacity:1" fill="#008cd5" d="M 312.5,510.5 C 312.769,508.571 312.269,506.905 311,505.5C 307.511,523.612 303.511,541.612 299,559.5C 298.392,561.066 297.558,562.4 296.5,563.5C 296.5,558.5 296.5,553.5 296.5,548.5C 302.359,535.762 305.859,522.429 307,508.5C 302.929,511.843 299.929,515.509 298,519.5C 297.667,519.167 297.333,518.833 297,518.5C 295.385,519.386 293.885,520.386 292.5,521.5C 295.704,511.889 298.704,502.223 301.5,492.5C 302.322,490.611 303.155,488.611 304,486.5C 306.854,484.402 309.521,482.069 312,479.5C 313.094,485.087 313.594,490.754 313.5,496.5C 313.499,501.346 313.166,506.012 312.5,510.5 Z"/></g>
<g><path style="opacity:1" fill="#8dd1f3" d="M 277.5,479.5 C 282.857,484.088 284.024,489.755 281,496.5C 277.28,509.268 271.947,521.268 265,532.5C 263.989,533.337 262.822,533.67 261.5,533.5C 259.639,535.745 258.639,538.412 258.5,541.5C 257.5,541.833 256.833,542.5 256.5,543.5C 253.127,546.178 249.794,548.844 246.5,551.5C 240.822,555.341 234.822,558.674 228.5,561.5C 255.54,540.783 271.873,513.45 277.5,479.5 Z"/></g>
<g><path style="opacity:1" fill="#eaf6fd" d="M 65.5,471.5 C 64.791,472.404 63.791,472.737 62.5,472.5C 62.2317,475.119 62.565,477.619 63.5,480C 72.5006,481.567 81.5006,483.067 90.5,484.5C 89.7814,486.764 89.448,489.097 89.5,491.5C 88.962,493.117 88.6287,494.784 88.5,496.5C 84.1667,496.5 79.8333,496.5 75.5,496.5C 74.5,496.5 73.5,496.5 72.5,496.5C 70.7839,496.371 69.1172,496.038 67.5,495.5C 64.3705,495.228 61.7039,494.062 59.5,492C 61.2087,485.959 61.8754,479.792 61.5,473.5C 62.1834,471.824 63.5168,471.157 65.5,471.5 Z"/></g>
<g><path style="opacity:1" fill="#77c8f1" d="M 272.5,464.5 C 279.335,470.499 286.335,476.332 293.5,482C 295.066,482.3 296.399,481.8 297.5,480.5C 297.326,482.861 296.993,485.194 296.5,487.5C 291.442,499.289 285.109,510.289 277.5,520.5C 273.84,525.161 270.174,529.828 266.5,534.5C 263.833,536.833 261.167,539.167 258.5,541.5C 258.639,538.412 259.639,535.745 261.5,533.5C 262.822,533.67 263.989,533.337 265,532.5C 271.947,521.268 277.28,509.268 281,496.5C 284.024,489.755 282.857,484.088 277.5,479.5C 276.018,475.706 274.351,472.039 272.5,468.5C 272.5,467.167 272.5,465.833 272.5,464.5 Z"/></g>
<g><path style="opacity:1" fill="#9bd6f5" d="M 45.5,487.5 C 45.238,488.978 45.5713,490.311 46.5,491.5C 50.6079,492.527 54.6079,493.86 58.5,495.5C 68.1472,524.808 86.4805,546.808 113.5,561.5C 107.5,561.5 101.5,561.5 95.5,561.5C 78.1325,548.965 64.9658,532.965 56,513.5C 55.5012,509.514 55.3345,505.514 55.5,501.5C 51.8026,500.992 48.1359,500.326 44.5,499.5C 44.1832,495.298 44.5166,491.298 45.5,487.5 Z"/></g>
<g><path style="opacity:1" fill="#00a4e1" d="M 321.5,474.5 C 323.295,479.219 324.462,484.219 325,489.5C 325.752,501.859 325.585,514.193 324.5,526.5C 322,531.159 320.166,536.159 319,541.5C 316,546.833 313,552.167 310,557.5C 309.955,554.78 310.455,552.114 311.5,549.5C 316.79,532.95 319.123,515.95 318.5,498.5C 319.117,498.611 319.617,498.944 320,499.5C 320.834,495.165 321.667,490.832 322.5,486.5C 321.833,485.5 321.167,484.5 320.5,483.5C 321.302,480.551 321.636,477.551 321.5,474.5 Z"/></g>
<g><path style="opacity:1" fill="#019ede" d="M 299.5,483.5 C 301.265,486.123 301.932,489.123 301.5,492.5C 298.704,502.223 295.704,511.889 292.5,521.5C 288.951,530.931 284.617,539.931 279.5,548.5C 279.791,539.073 279.125,529.739 277.5,520.5C 285.109,510.289 291.442,499.289 296.5,487.5C 297.5,486.167 298.5,484.833 299.5,483.5 Z"/></g>
<g><path style="opacity:1" fill="#8fd1f4" d="M 51.5,447.5 C 50.986,453.822 50.6527,460.155 50.5,466.5C 50.5,467.5 50.5,468.5 50.5,469.5C 47.6513,475.062 45.9846,481.062 45.5,487.5C 44.5166,491.298 44.1832,495.298 44.5,499.5C 48.1359,500.326 51.8026,500.992 55.5,501.5C 55.3345,505.514 55.5012,509.514 56,513.5C 64.9658,532.965 78.1325,548.965 95.5,561.5C 94.209,561.263 93.209,561.596 92.5,562.5C 91.1667,562.5 89.8333,562.5 88.5,562.5C 73.9315,551.091 62.4315,537.091 54,520.5C 53.502,517.518 53.3354,514.518 53.5,511.5C 50.3992,511.308 47.3992,510.642 44.5,509.5C 42.8394,500.198 41.506,490.864 40.5,481.5C 42.1906,469.431 45.8572,458.097 51.5,447.5 Z"/></g>
<g><path style="opacity:1" fill="#02a5e3" d="M 277.5,520.5 C 279.125,529.739 279.791,539.073 279.5,548.5C 276.186,560.798 270.519,571.798 262.5,581.5C 262.528,579.418 261.861,577.584 260.5,576C 261.833,574.333 263.167,572.667 264.5,571C 264.043,570.586 263.709,570.086 263.5,569.5C 266.1,557.997 267.1,546.331 266.5,534.5C 270.174,529.828 273.84,525.161 277.5,520.5 Z"/></g>
<g><path style="opacity:1" fill="#62c0ed" d="M 38.5,494.5 C 38.3341,499.511 38.5007,504.511 39,509.5C 40.6181,513.068 41.9515,516.735 43,520.5C 45.8365,519.735 48.6698,520.068 51.5,521.5C 53.1529,527.03 54.1529,532.697 54.5,538.5C 53.596,537.791 53.2627,536.791 53.5,535.5C 50.8333,535.167 48.1667,534.833 45.5,534.5C 46.5,539.833 47.5,545.167 48.5,550.5C 47.1422,548.482 45.4755,546.649 43.5,545C 43.8333,544.667 44.1667,544.333 44.5,544C 43.552,543.517 42.552,543.351 41.5,543.5C 37.8102,527.174 36.8102,510.841 38.5,494.5 Z"/></g>
<g><path style="opacity:1" fill="#009adc" d="M 324.5,526.5 C 312.071,589.429 275.071,629.929 213.5,648C 196.318,651.31 178.984,652.31 161.5,651C 152.48,649.745 143.814,647.578 135.5,644.5C 169.943,649.151 202.943,644.484 234.5,630.5C 240.918,627.955 247.251,624.955 253.5,621.5C 255.192,619.641 256.692,617.641 258,615.5C 258.692,614.563 258.525,613.897 257.5,613.5C 285.396,593.081 302.729,565.747 309.5,531.5C 310.167,537.5 310.833,543.5 311.5,549.5C 310.455,552.114 309.955,554.78 310,557.5C 313,552.167 316,546.833 319,541.5C 320.166,536.159 322,531.159 324.5,526.5 Z"/></g>
<g><path style="opacity:1" fill="#0cabe4" d="M 266.5,534.5 C 267.1,546.331 266.1,557.997 263.5,569.5C 263.709,570.086 264.043,570.586 264.5,571C 263.167,572.667 261.833,574.333 260.5,576C 261.861,577.584 262.528,579.418 262.5,581.5C 261.876,583.754 260.543,585.421 258.5,586.5C 258.5,584.833 258.5,583.167 258.5,581.5C 254.935,582.956 251.602,584.956 248.5,587.5C 248.167,586.667 247.833,585.833 247.5,585C 252.101,571.491 255.101,557.658 256.5,543.5C 256.833,542.5 257.5,541.833 258.5,541.5C 261.167,539.167 263.833,536.833 266.5,534.5 Z"/></g>
<g><path style="opacity:1" fill="#81ccf2" d="M 40.5,481.5 C 41.506,490.864 42.8394,500.198 44.5,509.5C 47.3992,510.642 50.3992,511.308 53.5,511.5C 53.3354,514.518 53.502,517.518 54,520.5C 62.4315,537.091 73.9315,551.091 88.5,562.5C 87.8333,562.5 87.5,562.833 87.5,563.5C 84.4721,563.339 81.6388,564.006 79,565.5C 77.7753,565.138 76.6086,564.638 75.5,564C 67.8998,556.905 60.8998,549.405 54.5,541.5C 54.5,540.5 54.5,539.5 54.5,538.5C 54.1529,532.697 53.1529,527.03 51.5,521.5C 48.6698,520.068 45.8365,519.735 43,520.5C 41.9515,516.735 40.6181,513.068 39,509.5C 38.5007,504.511 38.3341,499.511 38.5,494.5C 38.4379,489.924 39.1045,485.591 40.5,481.5 Z"/></g>
<g><path style="opacity:1" fill="#16b9ee" d="M 54.5,538.5 C 54.5,539.5 54.5,540.5 54.5,541.5C 55.2463,545.565 56.2463,549.565 57.5,553.5C 55.0075,552.226 52.3408,551.56 49.5,551.5C 49.5,550.833 49.1667,550.5 48.5,550.5C 47.5,545.167 46.5,539.833 45.5,534.5C 48.1667,534.833 50.8333,535.167 53.5,535.5C 53.2627,536.791 53.596,537.791 54.5,538.5 Z"/></g>
<g><path style="opacity:1" fill="#33b1e7" d="M 256.5,543.5 C 255.101,557.658 252.101,571.491 247.5,585C 247.833,585.833 248.167,586.667 248.5,587.5C 251.602,584.956 254.935,582.956 258.5,581.5C 258.5,583.167 258.5,584.833 258.5,586.5C 256.212,590.456 253.212,593.789 249.5,596.5C 249.128,588.154 246.128,587.154 240.5,593.5C 237.833,594.5 235.167,595.5 232.5,596.5C 240.715,582.649 245.382,567.649 246.5,551.5C 249.794,548.844 253.127,546.178 256.5,543.5 Z"/></g>
<g><path style="opacity:1" fill="#46b5e8" d="M 246.5,551.5 C 245.382,567.649 240.715,582.649 232.5,596.5C 226.903,599.593 220.903,601.926 214.5,603.5C 213.614,604.325 213.281,605.325 213.5,606.5C 213.167,606.5 212.833,606.5 212.5,606.5C 213.084,603.715 212.084,602.048 209.5,601.5C 213.368,599.516 214.368,596.516 212.5,592.5C 218.709,583.743 223.042,574.076 225.5,563.5C 226.29,562.599 227.29,561.932 228.5,561.5C 234.822,558.674 240.822,555.341 246.5,551.5 Z"/></g>
<g><path style="opacity:1" fill="#0283cb" d="M 312.5,510.5 C 311.886,517.565 310.886,524.565 309.5,531.5C 302.729,565.747 285.396,593.081 257.5,613.5C 240.661,624.002 222.328,630.336 202.5,632.5C 202.062,632.565 201.728,632.399 201.5,632C 204.957,629.613 207.957,626.78 210.5,623.5C 218.383,623.721 225.383,621.388 231.5,616.5C 237.167,612.833 241.833,608.167 245.5,602.5C 247.25,601.341 248.25,599.674 248.5,597.5C 249.167,597.5 249.5,597.167 249.5,596.5C 253.212,593.789 256.212,590.456 258.5,586.5C 260.543,585.421 261.876,583.754 262.5,581.5C 270.519,571.798 276.186,560.798 279.5,548.5C 284.617,539.931 288.951,530.931 292.5,521.5C 293.885,520.386 295.385,519.386 297,518.5C 297.333,518.833 297.667,519.167 298,519.5C 299.929,515.509 302.929,511.843 307,508.5C 305.859,522.429 302.359,535.762 296.5,548.5C 294.585,548.216 292.919,548.549 291.5,549.5C 284.367,553.025 282.7,558.358 286.5,565.5C 280.609,572.889 273.609,579.055 265.5,584C 256.641,592.185 249.308,601.519 243.5,612C 238.295,616.103 232.628,619.437 226.5,622C 225.304,622.654 225.304,623.154 226.5,623.5C 258.216,613.106 281.549,593.106 296.5,563.5C 297.558,562.4 298.392,561.066 299,559.5C 303.511,541.612 307.511,523.612 311,505.5C 312.269,506.905 312.769,508.571 312.5,510.5 Z"/></g>
<g><path style="opacity:1" fill="#009fdf" d="M 291.5,549.5 C 292.812,551.743 293.478,554.41 293.5,557.5C 293.333,560.167 293.167,562.833 293,565.5C 290.88,566.605 288.713,566.605 286.5,565.5C 282.7,558.358 284.367,553.025 291.5,549.5 Z"/></g>
<g><path style="opacity:1" fill="#83ccf1" d="M 92.5,562.5 C 93.209,561.596 94.209,561.263 95.5,561.5C 101.5,561.5 107.5,561.5 113.5,561.5C 113.833,561.5 114.167,561.5 114.5,561.5C 126.099,577.865 141.433,582.699 160.5,576C 163.74,573.909 167.074,572.076 170.5,570.5C 177.833,570.5 185.167,570.5 192.5,570.5C 190.708,571.309 188.708,571.809 186.5,572C 167.299,593.758 144.633,598.092 118.5,585C 110.356,579.192 104.023,571.859 99.5,563C 97.1902,562.503 94.8568,562.337 92.5,562.5 Z"/></g>
<g><path style="opacity:1" fill="#77c6ef" d="M 88.5,562.5 C 89.8333,562.5 91.1667,562.5 92.5,562.5C 94.8568,562.337 97.1902,562.503 99.5,563C 104.023,571.859 110.356,579.192 118.5,585C 144.633,598.092 167.299,593.758 186.5,572C 188.708,571.809 190.708,571.309 192.5,570.5C 195.206,570.425 197.873,570.092 200.5,569.5C 200.833,569.5 201.167,569.5 201.5,569.5C 184.947,598.419 160.28,609.252 127.5,602C 108.081,595.413 94.7475,582.58 87.5,563.5C 87.5,562.833 87.8333,562.5 88.5,562.5 Z"/></g>
<g><path style="opacity:1" fill="#8dd0f3" d="M 114.5,561.5 C 130.345,562.669 146.012,565.003 161.5,568.5C 164.5,569.167 167.5,569.833 170.5,570.5C 167.074,572.076 163.74,573.909 160.5,576C 141.433,582.699 126.099,577.865 114.5,561.5 Z"/></g>
<g><path style="opacity:1" fill="#47b5e8" d="M 41.5,543.5 C 42.552,543.351 43.552,543.517 44.5,544C 44.1667,544.333 43.8333,544.667 43.5,545C 45.4755,546.649 47.1422,548.482 48.5,550.5C 49.1667,550.5 49.5,550.833 49.5,551.5C 52.9613,562.882 57.9613,573.549 64.5,583.5C 64.3333,583.833 64.1667,584.167 64,584.5C 61.2691,582.255 58.4358,580.255 55.5,578.5C 49.4641,567.421 44.7975,555.755 41.5,543.5 Z"/></g>
<g><path style="opacity:1" fill="#66c0ed" d="M 54.5,541.5 C 60.8998,549.405 67.8998,556.905 75.5,564C 76.6086,564.638 77.7753,565.138 79,565.5C 81.6388,564.006 84.4721,563.339 87.5,563.5C 94.7475,582.58 108.081,595.413 127.5,602C 160.28,609.252 184.947,598.419 201.5,569.5C 209.732,568.387 217.732,566.387 225.5,563.5C 223.042,574.076 218.709,583.743 212.5,592.5C 208.842,589.699 205.508,590.032 202.5,593.5C 187.326,590.671 179.659,597.004 179.5,612.5C 178.833,612.5 178.167,612.5 177.5,612.5C 176.412,608.252 173.745,606.752 169.5,608C 167.859,609.129 166.859,610.629 166.5,612.5C 160.132,612.83 153.798,612.496 147.5,611.5C 145.737,609.064 143.737,608.897 141.5,611C 124.546,610.51 107.879,608.01 91.5,603.5C 91.5654,603.062 91.3988,602.728 91,602.5C 90.6667,603.167 90.3333,603.833 90,604.5C 81.2001,596.237 74.3668,586.571 69.5,575.5C 68.1502,574.05 66.4835,573.383 64.5,573.5C 61.7672,566.968 59.4339,560.301 57.5,553.5C 56.2463,549.565 55.2463,545.565 54.5,541.5 Z"/></g>
<g><path style="opacity:1" fill="#50b8e9" d="M 64.5,573.5 C 66.4835,573.383 68.1502,574.05 69.5,575.5C 74.3668,586.571 81.2001,596.237 90,604.5C 90.3333,603.833 90.6667,603.167 91,602.5C 91.3988,602.728 91.5654,603.062 91.5,603.5C 106.028,614.915 122.361,622.915 140.5,627.5C 147.976,629.914 155.643,631.581 163.5,632.5C 163.611,633.117 163.944,633.617 164.5,634C 158.555,635.162 152.555,635.662 146.5,635.5C 123.969,631.564 103.635,622.731 85.5,609C 81.9084,606.079 79.0751,602.579 77,598.5C 72.8201,590.14 68.6534,581.807 64.5,573.5 Z"/></g>
<g><path style="opacity:1" fill="#007ac4" d="M 264.5,644.5 C 264.53,643.503 264.03,642.836 263,642.5C 258.889,643.404 254.722,643.737 250.5,643.5C 278.025,624.138 300.191,599.804 317,570.5C 306.654,600.174 289.154,624.841 264.5,644.5 Z"/></g>
<g><path style="opacity:1" fill="#0098e1" d="M 291.5,549.5 C 292.919,548.549 294.585,548.216 296.5,548.5C 296.5,553.5 296.5,558.5 296.5,563.5C 281.549,593.106 258.216,613.106 226.5,623.5C 225.304,623.154 225.304,622.654 226.5,622C 232.628,619.437 238.295,616.103 243.5,612C 249.308,601.519 256.641,592.185 265.5,584C 273.609,579.055 280.609,572.889 286.5,565.5C 288.713,566.605 290.88,566.605 293,565.5C 293.167,562.833 293.333,560.167 293.5,557.5C 293.478,554.41 292.812,551.743 291.5,549.5 Z"/></g>
<g><path style="opacity:1" fill="#9ed8f5" d="M 212.5,592.5 C 214.368,596.516 213.368,599.516 209.5,601.5C 207.801,601.527 206.467,602.194 205.5,603.5C 205.715,601.821 205.048,600.821 203.5,600.5C 202.781,598.236 202.448,595.903 202.5,593.5C 205.508,590.032 208.842,589.699 212.5,592.5 Z"/></g>
<g><path style="opacity:1" fill="#01a0e8" d="M 202.5,593.5 C 202.448,595.903 202.781,598.236 203.5,600.5C 202.566,601.568 202.232,602.901 202.5,604.5C 203.791,604.737 204.791,604.404 205.5,603.5C 206.467,602.194 207.801,601.527 209.5,601.5C 212.084,602.048 213.084,603.715 212.5,606.5C 212.211,620.833 204.878,627 190.5,625C 184.785,622.463 181.118,618.296 179.5,612.5C 179.659,597.004 187.326,590.671 202.5,593.5 Z"/></g>
<g><path style="opacity:1" fill="#74caf3" d="M 249.5,596.5 C 249.5,597.167 249.167,597.5 248.5,597.5C 247.193,598.153 245.86,598.82 244.5,599.5C 243.642,597.099 242.309,595.099 240.5,593.5C 246.128,587.154 249.128,588.154 249.5,596.5 Z"/></g>
<g><path style="opacity:1" fill="#98d6f5" d="M 240.5,593.5 C 242.309,595.099 243.642,597.099 244.5,599.5C 245.86,598.82 247.193,598.153 248.5,597.5C 248.25,599.674 247.25,601.341 245.5,602.5C 245.217,601.711 244.717,601.044 244,600.5C 241.07,602.255 237.903,603.422 234.5,604C 228.652,604.173 222.985,604.673 217.5,605.5C 215.088,605.694 214.088,607.027 214.5,609.5C 213.596,608.791 213.263,607.791 213.5,606.5C 213.281,605.325 213.614,604.325 214.5,603.5C 220.903,601.926 226.903,599.593 232.5,596.5C 235.167,595.5 237.833,594.5 240.5,593.5 Z"/></g>
<g><path style="opacity:1" fill="#0da9e5" d="M 49.5,551.5 C 52.3408,551.56 55.0075,552.226 57.5,553.5C 59.4339,560.301 61.7672,566.968 64.5,573.5C 68.6534,581.807 72.8201,590.14 77,598.5C 79.0751,602.579 81.9084,606.079 85.5,609C 103.635,622.731 123.969,631.564 146.5,635.5C 150.191,636.393 153.858,637.393 157.5,638.5C 139.438,637.767 121.771,634.767 104.5,629.5C 83.7573,616.757 67.4239,599.757 55.5,578.5C 58.4358,580.255 61.2691,582.255 64,584.5C 64.1667,584.167 64.3333,583.833 64.5,583.5C 57.9613,573.549 52.9613,562.882 49.5,551.5 Z"/></g>
<g><path style="opacity:1" fill="#f4fafe" d="M 203.5,600.5 C 205.048,600.821 205.715,601.821 205.5,603.5C 204.791,604.404 203.791,604.737 202.5,604.5C 202.232,602.901 202.566,601.568 203.5,600.5 Z"/></g>
<g><path style="opacity:1" fill="#c1e5f9" d="M 245.5,602.5 C 241.833,608.167 237.167,612.833 231.5,616.5C 229.053,613.115 226.72,609.615 224.5,606C 222.19,605.503 219.857,605.337 217.5,605.5C 222.985,604.673 228.652,604.173 234.5,604C 237.903,603.422 241.07,602.255 244,600.5C 244.717,601.044 245.217,601.711 245.5,602.5 Z"/></g>
<g><path style="opacity:1" fill="#daeffb" d="M 217.5,605.5 C 219.857,605.337 222.19,605.503 224.5,606C 226.72,609.615 229.053,613.115 231.5,616.5C 225.383,621.388 218.383,623.721 210.5,623.5C 209.788,621.206 210.621,619.206 213,617.5C 214.079,614.937 214.579,612.271 214.5,609.5C 214.088,607.027 215.088,605.694 217.5,605.5 Z"/></g>
<g><path style="opacity:1" fill="#9cd7f5" d="M 177.5,612.5 C 176.669,617.989 173.669,619.656 168.5,617.5C 167.295,616.423 166.628,615.09 166.5,613.5C 166.5,613.167 166.5,612.833 166.5,612.5C 166.859,610.629 167.859,609.129 169.5,608C 173.745,606.752 176.412,608.252 177.5,612.5 Z"/></g>
<g><path style="opacity:1" fill="#0098e0" d="M 91.5,603.5 C 107.879,608.01 124.546,610.51 141.5,611C 143.737,608.897 145.737,609.064 147.5,611.5C 153.798,612.496 160.132,612.83 166.5,612.5C 166.5,612.833 166.5,613.167 166.5,613.5C 162.154,613.334 157.821,613.501 153.5,614C 149.033,617.465 144.867,621.298 141,625.5C 140.536,626.094 140.369,626.761 140.5,627.5C 122.361,622.915 106.028,614.915 91.5,603.5 Z"/></g>
<g><path style="opacity:1" fill="#018bd3" d="M 212.5,606.5 C 212.833,606.5 213.167,606.5 213.5,606.5C 213.263,607.791 213.596,608.791 214.5,609.5C 214.579,612.271 214.079,614.937 213,617.5C 210.621,619.206 209.788,621.206 210.5,623.5C 207.957,626.78 204.957,629.613 201.5,632C 201.728,632.399 202.062,632.565 202.5,632.5C 202.5,632.833 202.5,633.167 202.5,633.5C 189.438,635.1 176.438,634.767 163.5,632.5C 155.643,631.581 147.976,629.914 140.5,627.5C 140.369,626.761 140.536,626.094 141,625.5C 144.867,621.298 149.033,617.465 153.5,614C 157.821,613.501 162.154,613.334 166.5,613.5C 166.628,615.09 167.295,616.423 168.5,617.5C 173.669,619.656 176.669,617.989 177.5,612.5C 178.167,612.5 178.833,612.5 179.5,612.5C 181.118,618.296 184.785,622.463 190.5,625C 204.878,627 212.211,620.833 212.5,606.5 Z"/></g>
<g><path style="opacity:1" fill="#009edf" d="M 104.5,629.5 C 121.771,634.767 139.438,637.767 157.5,638.5C 170.844,639.739 184.178,639.739 197.5,638.5C 210.143,637.256 222.476,634.589 234.5,630.5C 202.943,644.484 169.943,649.151 135.5,644.5C 124.18,641.339 113.846,636.339 104.5,629.5 Z"/></g>
<g><path style="opacity:1" fill="#0da8e3" d="M 257.5,613.5 C 258.525,613.897 258.692,614.563 258,615.5C 256.692,617.641 255.192,619.641 253.5,621.5C 247.251,624.955 240.918,627.955 234.5,630.5C 222.476,634.589 210.143,637.256 197.5,638.5C 198.749,636.864 200.416,635.697 202.5,635C 203.738,634.31 203.738,633.81 202.5,633.5C 202.5,633.167 202.5,632.833 202.5,632.5C 222.328,630.336 240.661,624.002 257.5,613.5 Z"/></g>
<g><path style="opacity:1" fill="#37b1e6" d="M 163.5,632.5 C 176.438,634.767 189.438,635.1 202.5,633.5C 203.738,633.81 203.738,634.31 202.5,635C 200.416,635.697 198.749,636.864 197.5,638.5C 184.178,639.739 170.844,639.739 157.5,638.5C 153.858,637.393 150.191,636.393 146.5,635.5C 152.555,635.662 158.555,635.162 164.5,634C 163.944,633.617 163.611,633.117 163.5,632.5 Z"/></g>
<g><path style="opacity:1" fill="#0092da" d="M 250.5,643.5 C 254.722,643.737 258.889,643.404 263,642.5C 264.03,642.836 264.53,643.503 264.5,644.5C 245.005,660.063 222.672,668.896 197.5,671C 156.146,676.091 120.48,664.425 90.5,636C 106.117,646.78 123.45,654.114 142.5,658C 167.113,663.425 191.779,663.758 216.5,659C 228.476,655.178 239.809,650.011 250.5,643.5 Z"/></g>
</svg>
